<?xml version="1.0" encoding="utf-8"?>
<!-- Generator: Adobe Illustrator 23.0.1, SVG Export Plug-In . SVG Version: 6.00 Build 0)  -->
<svg version="1.1" xmlns="http://www.w3.org/2000/svg" xmlns:xlink="http://www.w3.org/1999/xlink" x="0px" y="0px"
	 viewBox="0 0 800 600" style="enable-background:new 0 0 800 600;" xml:space="preserve">
<style type="text/css">
	.st0{fill:#808080;stroke:#FFFFFF;stroke-width:0.5;stroke-linecap:round;stroke-linejoin:round;}
	.st1{font-family:'Roboto-Regular';}
	.st2{font-size:14px;}
</style>
<g id="Tanzania">
	<path class="st0" d="M352.983,457.297l-1.547-1.022l-1.732-0.632l-0.809,0.726l-0.608,0.695l-1.175,0.977l-0.742,1.27l0.928,2.258
		l-0.093,0.883l-0.35,1.526l-0.036,0.925l-0.175,0.659l-0.412,0.518l-0.737,0.486v0.345l-0.819,0.894l-0.582-0.424l-0.541-1.004
		l-1.201-1.02l-1.412-0.847l-1.17-0.481l-1.294-0.852l-1.273-1.291l-1.366-0.852l-1.6,0.444l-1.319,0.747l-1.268,0.167l-0.025-0.004
		l-1.31-0.231l-1.521-0.481l-1.69-0.178l-1.211,0.507l-1.175,0.69l-1.551,0.376l-2.072-0.146l-0.964-0.298l-0.768-0.544l-0.6-0.946
		l-0.858-1.876l-0.923-0.873l-2.804-2.002l-0.892-0.314l-0.443,0.084l-0.789,0.523l-0.428,0.136l-0.598-0.057l-1.036-0.314
		l-0.696,0.005l-0.33,0.162l-0.686,0.57l-0.453,0.157l-0.186-0.11l-1.461-0.58l-1.343-0.298l-0.453-0.183l-3.072-2.388l-2.495-2.492
		l-0.876-0.512l-0.969,0.042l-0.948,0.486l-0.768,0.82l-0.768-0.491l-3.727-1.416l-2.314-1.541l-0.366-0.073l-0.866,0.089
		l-0.366-0.13l-0.289-0.376l-0.155-0.757l-0.185-0.387l-0.691-0.747l-0.629-0.34l-3.572-0.303l-4.288-0.94l-1.874-0.151
		l-0.678-0.454l-0.717-1.107l-0.969-2.297l-0.546-0.7l-1.809-1.222l-2.015-0.501l-6.497,0.131l-1.062-0.136l-1.005-0.355
		l-0.982-0.736l-1.835-1.869l-0.461-0.25l0.02-0.327l-0.459-3.019l0.479-0.595l0.799-0.094l-0.644-2.043l-1.938-1.795l-1.124-0.803
		l-0.897-1.004l1.02-1.429l-1.773-1.857l-2.294-1.554l1.057-2.021l6.206-2.224l2.881-1.765l3.737-4.762l0.227-5.686l-0.861-2.733
		l0.17-2.873l1.835-2.217l3.062-0.109l6.262-4.253l1.304,0.612l0.211,1.005l-0.211,1.505l0.753,1.253l0.052,1.495l0.237,1.456
		l4.154,5.291l2.072,0.175l1.938-0.258l1.871,0.357l-0.387-3.306l-11.52-15.424l-2.34-2.361l-9.257-6.199l-13.396-7.029
		l-0.876-1.763l1.371-4.314l1.959-4.061l1.742-2.675l5.123-1.957l1.814-3.574l1.984-5.46l0.031-5.32l11.349-3.925l2.562-1.423
		l3.479,0.083l3.391-0.579l1.289-0.958l3.206-5.159l0.582-1.264l1.242-0.504l2.185,0.223l1.68-1.07l1.191-1.096l1.577-0.563
		l4.283-1.007l4.072,1.207l3.458,2.326l4.015,0.922l10.834-0.641l1.515,1.288l1.139,1.649l0.701,2.609l0.381,2.742l1.206,2.008
		l2.124,0.8l1.732,1.681l1.18,2.218l0.789,1.161l0.974,1.005l2.866,0.875l0.634,1.159l0.16,1.364l0.887,2.1l0.196,2.066l0.814,0.478
		l0.984,0.255l2.077,1.484l2.263,1.016l1.283,0.86l0.804,0.931l-0.711,1.396l-0.995,1.204l-1.366,3.229l-1.139,1.95l-1.356,1.802
		l-0.912,1.857l-0.433,2.052l0.722,1.467l1.912,0.255l23.204-1.173l2.562,0.208l7.381,1.753l1.84,1.293l2.129,0.7l13.504,2.162
		l0.495,1.525l-0.18,1.296l1.325,0.232l2.402-0.2l2.263,0.812l1.371,1.398l-1.206,1.642l-2.18,1.702l-2.742,0.82l-1.211,1.494
		l-1.799,4.174l-1.304,2.187l-1.763,1.357l-2.103,0.711l-1.83,1.711l-1.417,2.18l-1.041,2.095l0.794,2.048l1.067,1.566l0.809,1.725
		l-0.582,3.292l-1.253,3.287l-1.118,0.774l-1.634-0.193l-1.866,0.691l-1.603,1.129l-1.304,2.633l-1.752,1.87l-2.309,0.926
		l-2.572,0.055l-4.783-0.689l-4.979,1.22l-2.871,0.068l-2.917-0.266l-2.531,1.035l-0.51,1.45l-1.392,0.459l-3.68-1.273l-2.716,0.54
		l-2.056,1.844l-2.861,4.683l0.289,2.401l1.66,1.923l1.155,2.138l0.84,2.281l-1.062,0.566l-0.268,1.049l1.696,0.379l0.546,0.671
		l0.134,1.582l1.118,1.452l2.727,4.73l1.51,2.074l0.928,0.405l1.01,0.138l2.005,2.017L352.983,457.297z"/>
	<path class="st0" d="M363.435,467.325l-4.85-5.145l-0.025-0.012l-0.003-0.003l-1.415-0.649l-0.861-0.946l-0.376-0.219l-1.69-2.059
		l-0.691-0.387l-0.474-0.564l-0.066-0.044l0.195-1.652l-2.005-2.017l-1.01-0.138l-0.928-0.405l-1.51-2.074l-2.727-4.73l-1.118-1.452
		l-0.134-1.582l-0.546-0.671l-1.696-0.379l0.268-1.049l1.062-0.566l-0.84-2.281l-1.155-2.138l-1.66-1.923l-0.289-2.401l2.861-4.683
		l2.056-1.844l2.716-0.54l3.68,1.273l1.392-0.459l0.51-1.45l2.531-1.035l2.917,0.266l2.871-0.068l4.979-1.22l4.783,0.689
		l2.572-0.055l2.309-0.926l1.752-1.87l1.304-2.633l1.603-1.129l1.866-0.691l1.634,0.193l1.118-0.774l1.253-3.287l7.061,2.153v2.532
		l11.96,4.221l-0.556,9.008l4.728,3.379l4.728,0.282l3.643-1.213l0.943-0.454l0.83-0.704l1.072,0.514l3.417,5.232l9.437,7.448
		l0.686,2.298l0.149,2.4l-1.5,1.447l-1.794,1.309l-2.289,1.1l-1.902,1.202l-1.5,1.565l-1.892,1.236l-4.34,4.045l-3.232,1.743
		l-4.855,5.197l-3.634,1.501l-1.649,0.897l-0.479,1.381l0.923,1.37l1.103,1.041l0.758,1.805l-0.155,2.469l1.974,2.896l0.474,3.318
		l-4.195,5.856l-0.629,1.707l-1.794,0.377l-1.825-0.013l-1.685,0.613l-1.191,1.312l-0.258,3.331l-4.278,3.327l-3.68,1.81
		l-2.304,3.252l-4.314,2.789l-1.407,0.64l-1.562,0.102l-0.577-0.385l-0.618-0.136l-1.289,0.241l-0.106,0.004l-0.033-0.272
		l0.103-0.65l0.464-1.138l0.108-0.482l-0.211-0.943l-0.959-1.609l-0.222-1.095l1.01-5.533l0.015-0.54l-0.108-0.629l-0.417-1.105
		l-0.474-2.692l-1.655-3.739l-0.381-1.728l0.103-0.503l0.443-0.989l0.103-0.581l-0.067-0.55l-0.582-1.733l-1.5-2.13l-0.567-1.041
		l-4.979-6.194l-0.057-0.209l-0.902-0.874l-0.227-0.126l-1.108-1.151l-0.289-0.403l-0.247-0.957l-0.124-0.905l-0.314-0.669
		L363.435,467.325z"/>
	<path class="st0" d="M377.998,509.037l0.106-0.004l1.289-0.241l0.618,0.136l0.577,0.385l1.562-0.102l1.407-0.64l4.314-2.789
		l2.304-3.252l3.68-1.81l4.278-3.327l0.258-3.331l1.191-1.312l1.685-0.613l1.825,0.013l1.794-0.377l0.629-1.707l4.195-5.856
		l-0.474-3.318l-1.974-2.896l0.155-2.469l-0.758-1.805l-1.103-1.041l-0.923-1.37l0.479-1.381l1.649-0.897l3.634-1.501l4.855-5.197
		l3.232-1.743l4.34-4.045l1.892-1.236l1.5-1.565l1.902-1.202l2.289-1.1l1.794-1.309l1.5-1.447l2.02-0.486l1.948-0.752l2.943-2.771
		l3.201-3.629l0.175,0.478l-0.325,0.478l0.01,0.83l0.232,1.029l0.17,3.596l0.562,1.779l0.861,1.685l-0.768,2.539l-2.02,1.85
		l-0.758,1.552l-0.201,1.599l0.464,1.069l-0.35,1.064l-1.711,2.13l-2.201,3.505l-0.959,0.797l-1.103,0.065l-0.799,0.656
		l-0.325,3.067l2.17,1.684l6.948-0.259l1.794,0.269l1.768-0.12l0.83-1.059l0.464-1.368l2.252-1.979l2.196-0.628L453.04,468
		l0.366,0.384l0.459-0.131l0.268,0.426l1.33,0.8l4.35-1.124l3.041,0.518l4.129-0.596l0.289-0.225l1.289-1.354l2.206-3.14
		l0.448-1.263l-0.021-2.276l1.031-0.293l0.562-0.28l0.649,1.417l-0.052,1.641l1.551,3.848l2.01,3.692l-1.557,4.088l-2.721,3.573
		l1.263,2.402l3.386-0.092l4.613-2.548l4.005-3.497l2.876-3.444l3.314-2.994l3.933-2.505l1.603-0.721l4.443-3.333l3.711-1.095
		l-0.68,3.021l-1.191,2.941l-2.18,3.15l-3.809,4.221l-4.129,3.764l-1.268,2.771l-0.34,3.085l0.186,3.685l-0.15,3.644l2.464,2.116
		l12.056,4.643l27.688,6.793l2.335,1.698l1.505,0.852l1.356,1.083l1.227,2.052l0.536,1.193l0.335,1.119l1.283,2.242l0.711,2.381
		l0.856,1.306l1.108,1.254l2.484,4.617l1.562,10.317l3.443,11.995l0.002,0.008l-1.126-0.023l-2.85,0.489l-0.469,0.499l-0.443,0.116
		l-2.031,0.126l-0.825,0.2l-3.134,1.787l-0.34,0.442l-0.129,0.746l-0.768,2.298l-0.469,0.62l0.072,0.915l-1.196,2.14l-0.263,1.141
		l0.201,0.679l0.299,0.626l0.093,0.626l-0.407,0.679l-0.624,0.558l-1.036,0.731l-3.628,1.605l-2.221,1.789l-0.928,0.531l-1.067,0.19
		l-1.582,0.016l-1.082,0.211l-1.804,0.958l-1.041,0.221l-0.603,0.274l-0.387,0.631l-0.284,0.705l-0.278,0.505l-0.418,0.363
		l-0.335,0.179l-0.948,0.158h-1.139l-2.469-0.7l-0.407-0.205l-0.887-0.942l-0.577-0.274l-0.469,0.032l-0.387,0.19l-0.392,0.253
		l-0.484,0.221l-1.789,0.195l-2.175-0.237l-4.237-0.969l-1.752-0.847l-1.742-1.474l-1.355-1.705l-0.598-1.568l-0.784,0.463
		l-0.443,0.337l-0.469,0.205l-4.613,0.416l-0.737-0.142l-1.237-0.805l-0.984-0.074l-0.474-0.242l-0.845,0.284l-2.258,2.684
		l-1.387,2.047l-0.448,0.421l-0.572,0.305l-1.84,0.705l-0.484,0.4l-0.268,0.326l-0.366,0.232l-1.33,0.147l-0.742,0.258L476.883,570
		l-0.861-0.095l-1.253-0.626l-0.278-0.105l-0.314-0.268l-0.299-1.195l-0.392-0.274h-5.824l-0.237,0.111l-0.258,0.237l-0.345,0.237
		l-1.567,0.237l-1.814,0.521l-0.732,0.079l-0.516-0.147l-0.773-0.474l-0.598-0.105l-2.056,0.353l-0.572-0.4l-0.448-0.921
		l-0.15-1.047l0.32-0.763l-0.335-1.016l-0.113-1.152l-0.278-0.952l-0.804-0.389l-0.454-0.105l-0.34-0.263l-0.325-0.342l-0.418-0.331
		l-0.479-0.205l-1.103-0.289l-0.49-0.2l-1.82-1.126l-1.041-0.468l-0.716,0.047l-0.964,0.284l-0.933-0.495l-0.448-0.962l0.474-1.136
		l-0.861-1.047l-0.665-0.331l-1.881,0.021l-0.32-0.089l-1.412-0.605l-2.041-0.379l-0.66,0.452l-1.556,1.977l-0.881,0.694
		l-2.505,0.458l-0.917,0.547l0.387,1.115l-0.603,0.394l-0.552,0.679l-0.417,0.705l-0.351,1.047l-0.5,0.321l-2.69,0.71l-0.057-0.005
		l-1.17,0.663l-0.82-0.21l-0.804-0.321l-0.546,0.042l-0.062,0.873l-0.567-0.184l-0.227-0.284l-0.129-0.352l-0.268-0.384
		l-0.443-0.342l-0.232-0.026l-0.196,0.116l-0.325,0.095l-0.01,0.047l-0.665,0.268l-0.216,0.021l-1.227-0.058l-0.464-0.152
		l-0.33-0.326l-0.088-0.279l-2.082,0.058l-20.802-0.211l-0.082-0.442v-2.635l-0.113-0.742l-0.247-0.599l-0.237-0.458l-0.113-0.305
		l-0.211-0.373l-0.469-0.405l-0.469-0.536l-0.428-1.378l-0.933-0.778l-0.211-0.384l-0.376-1.046l-0.933-0.846l-1.206-0.636
		l-2.154-0.731l-0.407-0.053l-0.371,0.131l-0.634,0.557l-0.33,0.037l-0.319-0.389l-1.103-2.071l0.299-0.158l0.428-0.336l0.294-0.168
		v-0.315l-0.79-0.453l-0.648-0.745l-0.443-0.988l-0.16-1.161l-0.124-0.457l-0.309-0.394l-0.397-0.278l-0.902-0.226l-0.237-0.32
		l-0.155-0.447l-0.263-0.499l-2.376-2.054l-0.376-0.893l-0.144-1.245l-0.665-2.085l-0.216-1.04l0.247-1.281l1.453-1.874l0.917-2.073
		l0.108-0.525v-2.252l0.644-3.175l-0.191-1.328l0.304-0.43l0.608-0.456l-0.129-0.656l-0.299-0.362l-0.325-0.236l-0.211-0.289
		l-0.088-0.225l-0.314-0.467l0.66-1.07l-0.041-1.107l-0.474-1.023l-1.072-1.274l-0.134-0.299l0.041-0.975l-0.139-0.593l-0.34-0.1
		l-0.433,0.026l-0.423-0.199l-0.402-0.577l-0.33-0.666l-0.232-0.703L377.998,509.037z"/>
	<path class="st0" d="M132.353,203.008l1.652,0.39l2.036,0.16l0.227,0.088l0.575-0.445l0.152-0.564l0.026-0.646l0.186-0.708
		l0.314-0.295l0.851-0.398l0.258-0.429l0.106-0.817l0.09-0.176l0.809-0.496l0.531,0.067l0.541,0.274l0.835,0.14l0.438-0.15
		l2.649-1.246l1.788-1.68l1.711-0.972l0.505-0.408l1.108-0.625l0.629-0.796l1.273-3.049l0.515-0.744l3.397-2.832l1.505-1.834
		l1.17-2.026l0.131-0.316l0.776-1.875l0.866-3.601l0.598-1.023l2.618-2.686l1.917-3.316l1.26-0.806l2.224,0.728l0.17-0.878
		l-0.155-0.78l-0.283-0.77l-0.211-0.842l0.055-0.929l0.002-0.037l0.35-0.899l2.057-3.238l0.374-0.93l0.018-0.914l-0.119-1.002
		l0.271-0.599l1.389-0.997l0.124-0.201l0.186-0.589l0.129-0.155l0.83-0.124l0.098,0.01l0.026,0.093l0.954-0.077l0.054-0.108
		l0.085-0.434l0.077-0.124l1.327-0.305l0.343-0.124l0.397-0.346l0.65-0.775l2.34-1.089l1.309-1.27l0.064-1.332l-1.505-0.822
		l-0.348-0.19l0.917-1.105l0.941-0.878l1.1-0.681l1.363-0.516l0.613-0.077l0.487-0.274l0.32-0.449l0.152-0.594l1.32,0.656
		l1.384-0.155l1.201-0.821l0.753-1.342l-0.026-0.289l-0.222-0.888l-0.026-0.367l0.706-1.007l0.433-1.192l0.088-0.625l-0.051-0.63
		l-0.206-0.356l-0.647-0.475l-0.178-0.377l0.041-0.289l0.237-0.666l-0.008-0.263l-0.492-0.692l-1.227-1.156l-0.247-0.733l0.33-0.795
		l1.544-1.781l0.149-0.267l1.315-0.696l1-1.128l0.923-1.288l4.907-4.469l2.098,0.836l1.165,2.214l0.057,0.782l0.376,0.604
		l0.402,0.17l0.232,0.382l0.108,3.775l-1.392,3.582l-1.887,2.919l-0.098,2.764l0.438,0.516l0.608,0.01l0.716-0.847l0.943-0.601
		l2.623,1.941l0.562,3.596l1.268,3.475l0.917,1.719l1.067,1.603l0.005-0.017l0.067,0.133l0.856,1.694l-0.16,1.854l0.211,1.585
		l0.459,1.725l0.113,3.432l1.211,3.13l2.799,2.67l3.01,6.628l0.876,4.089l-0.273,2.428l-1.654,4.617l-0.139,2.467l0.407,1.535
		l0.206,1.584l0.593,0.747l0.16,0.879l1.067,2.595l1.649,2.621l0.021,2.321l0.351,2.267l1.381-0.14l0.603,1.228l0.459,3.743
		l0.892,3.798l-0.773,2.273l-0.443,0.494l-2.783,1.042l-0.938,0.646l-0.253,0.887l0.541,5.242l-0.402,0.605l-2.294,1.076
		l-0.892,0.553l-0.191,0.336l-0.196,0.786l-0.222,0.339l-0.351,0.22l-1.144,0.385l-2.479,1.891l-0.314,0.171l0.325,0.83l0.593,0.781
		l0.216,1.34l-2.422,6.75l-0.438,5.779l1.861,7.949l-0.928,1.74l-3.593,0.813l-3.86,1.033l-1.211-4.057l-0.469-0.65l-0.85-0.898
		l-0.216-0.326l-0.603-1.242l-0.381-0.401l-0.387-0.326l-0.35-0.388l-0.273-0.595l-0.186-2.148l-0.304-0.901l-0.861-0.37
		l-0.871,0.419l-1.082,2.001l-0.753,0.689l-1.067-0.823l-1.474-2.102l-1.237-0.867l-0.33-0.044l-0.742,0.101l-0.32-0.057
		l-0.34-0.303l-0.68-1.097l-1.582-1.002l-2.273-0.15l-13.746,0.088l-1.711,1.19l-3.221,3.657l-1.974,1.693l-2.443,0.569
		l-10.664,0.129l-0.886,1.123l4.531,3.847l1.912,4.329l3.263,19.083l1.423,4.109l3.01,5.608l1.541,4.321l2.309,1.392l1.603,1.833
		l-0.521,3.132l0.881,2.038l0.175,2.272l-4.726,3.242l-1.484,4.409l-1.137,1.533l-2.78-2.661l-0.529-1.005l-0.294-0.96l-0.749-0.783
		l-0.998-0.561l-1.057-0.281l-2.261,0.059l-2.114,0.606l-3.831,2.113l-0.029-1.182l-0.602-0.694l-1.762-0.901l-2.408-2.053
		l-4.419-5.509l-0.528-1.063l-0.352-0.443l-1.174-0.34l-0.514-0.384l-0.235-0.517l0.25-0.502l0.573-0.901l0.191-1.152l-0.338-3.367
		l0.117-3.189l0.338-1.004l0.837-1.255l0.998-1.122l0.881-0.576l0.484,0.03l0.852,0.546l0.543,0.133l0.382-0.192l3.259-3.055
		l1.13-0.635l1.189-0.251l-0.015-0.959l0.323-1.845l0.029-1.003l-0.485-2.287l-5.343-11.846l-0.984-1.283l-2.29-2.138l-1.013-1.401
		l-0.44-1.622l0.176-1.106l0.426-1.18l0.602-1.121l0.646-0.87l0.294-0.855l0.073-1.283l-0.073-1.209l-0.132-0.619l0.367-0.133
		l0.147-0.103l0.161,0.03l0.367,0.206l0.205-0.649l-0.338-1.017l0.308-0.575l0.382-0.457l0.015-0.324l-0.132-0.368l-0.088-0.56
		l-0.147-0.177l-0.294,0.015l-0.25-0.044v-0.324l0.176-0.221l0.205-0.044h0.191l0.117-0.074l0.176-0.28l0.191-0.192l0.191-0.295
		l0.118-0.575l-0.029-1.164l-0.308-1.164l-0.528-1.061l-1.204-1.562l-0.308-0.914l0.206-0.398l0.117-0.309l-0.015-0.295
		l-0.235-0.265l-0.279-0.029l-0.279,0.015l-0.191-0.089l-0.807-1.076l-0.484-0.427l-0.984-0.28l-1.321-0.56l-0.352-0.191
		l-0.382-0.472l-0.22-0.398l-0.308-0.368l-0.631-0.354l-0.499-0.162l-1.527-0.147l-0.896-0.309v-0.339l1.38-1.238l0.029-0.324
		l-0.279-0.383l-0.367-0.413l-0.25-0.413l-0.073-0.501l0.029-3.58l2.349-12.563L132.353,203.008z"/>
	<path class="st0" d="M161.853,309.53l1.137-1.533l1.484-4.409l4.726-3.242l-0.175-2.272l-0.881-2.038l0.521-3.132l-1.603-1.833
		l-2.309-1.392l-1.541-4.321l-3.01-5.608l-1.423-4.109l-3.263-19.083l-1.912-4.329l-4.531-3.847l0.886-1.123l10.664-0.129
		l2.443-0.569l1.974-1.693l3.221-3.657l1.711-1.19l13.746-0.088l2.273,0.15l1.582,1.002l0.68,1.097l0.34,0.303l0.32,0.057
		l0.742-0.101l0.33,0.044l1.237,0.867l1.474,2.102l1.067,0.823l0.753-0.689l1.082-2.001l0.871-0.419l0.861,0.37l0.304,0.901
		l0.186,2.148l0.273,0.595l0.35,0.388l0.387,0.326l0.381,0.401l0.603,1.242l0.216,0.326l0.85,0.898l0.469,0.65l1.211,4.057
		l-0.134,1.245l-1.428,0.797l-0.031,0.583l0.144,0.596l0.345,0.808l0.175,0.155l0.227,0.07l3.309,2.52l0.289,0.119l0.696-0.031
		l0.237,0.083l0.155,0.334l-0.026,0.319l-0.129,0.373l0.253,0.435l0.186,0.477l0.211,0.831l-0.34,1.15l0.057,0.254l0.232,0.474
		l0.052,0.3l-0.263,0.717l0.108,0.347l0.665,0.148l0.948-0.194l1.005-0.357l1.015-0.171l0.979,0.35l0.959,1.691l0.727,0.754
		l0.886-0.189l0.943-0.389l2.062,0.233l0.923-0.357l1.845,1.155l0.974,0.422l1.113,0.163l1.005-0.181l0.948-0.308l0.861-0.062
		l0.747,0.552l0.521-0.777l0.546-0.129l3.726,1.14l0.515-0.078l0.557-0.326l1.876-0.743l0.644-0.142l0.01-0.155l0.283-0.347
		l0.541-0.523l0.387-0.254l1.01-0.432l1.057-0.769l0.974-0.901l1.103-0.751l1.474-0.316l0.294,0.093l0.263,0.225l0.469,0.523
		l0.289,0.15l0.216-0.096l0.18-0.163l0.18-0.047l1.18,0.598l2.309,0.451l0.871,0.047l0.778-0.412v0.342l2.871,0.894l1.057,0.132
		l0.299,0.199l0.196,0.477l0.155,0.565l0.186,0.471l0.397,0.466l0.954,0.852l0.356,0.422l0.206,0.982l-0.036,2.466l0.325,0.832
		l0.634,0.909l0.881,3.371l0.835,1.817l1.16,1.708l1.273,1.415l1.191,0.943l2.582,1.384l0.68,0.498l0.299,0.163l0.634,0.101
		l0.294,0.249l0.046,0.228l-0.093,0.576l0.046,0.225l0.526,0.783l0.284,0.264l0.521,0.353l1.752,0.772l0.938,0.695l1.113,0.171
		l0.484,0.215l0.732,0.736l1.82,2.891l1.531,1.584l2.046,0.783l7.247,0.628l0.861,0.487l0.237,1.045l0.448,0.677l0.371,0.713
		l-0.294,0.954l-0.484,0.897l-1,1.299l-1.402,0.83l-2.933,3.725l-1.448,4.631l-0.242,5.221l0.314,5.233l-0.521,5.138l-1.18,5.038
		l-2.562,1.423l-11.349,3.925l-0.031,5.32l-1.984,5.46l-1.814,3.574l-5.123,1.957l-1.742,2.675l-1.959,4.061l-1.371,4.314
		l0.876,1.763l-11.133-1.878l-8.148-1.096l-6.519-1.096l-1.086-7.125l-1.087-7.671l-0.543-5.478l-2.716-3.286l-8.148-0.548
		l-7.062-0.548l-2.173-3.285v-4.38l-2.173-6.568l-4.346-1.642l-10.865,0.547l-5.432,1.642l-0.7,0.507l-2.455-1.571l-0.338-0.68
		l-1.174-0.769l-3.274-3.696l-0.852-1.966l-0.367-1.257l0.073-0.547l-1.864-2.409l-1.116-2.646l-0.44-0.429l-0.866-0.251
		l-0.866-0.606L161.853,309.53z"/>
	<path class="st0" d="M177.705,328.572l0.7-0.507l5.432-1.642l10.865-0.547l4.346,1.642l2.173,6.568v4.38l2.173,3.285l7.062,0.548
		l8.148,0.548l2.716,3.286l0.543,5.478l1.087,7.671l1.086,7.125l6.519,1.096l8.148,1.096l11.133,1.878l13.396,7.029l9.257,6.199
		l2.34,2.361l11.52,15.424l0.387,3.306l-1.871-0.357l-1.938,0.258l-2.072-0.175l-4.154-5.291l-0.237-1.456l-0.052-1.495
		l-0.753-1.253l0.211-1.505l-0.211-1.005l-1.304-0.612l-6.262,4.253l-3.062,0.109l-1.835,2.217l-0.17,2.873l0.861,2.733
		l-0.227,5.686l-3.737,4.762l-2.881,1.765l-6.206,2.224l-1.057,2.021l2.294,1.554l1.773,1.857l-1.02,1.429l0.897,1.004l1.124,0.803
		l1.938,1.795l0.644,2.043l-0.799,0.094l-0.479,0.595l0.459,3.019l-0.02,0.327l-0.57-0.309l-0.454-0.021l-0.959,0.23l-0.469,0.042
		l-0.518-0.151l-1.435-0.835l-1.273-0.183l-0.794,0.339l-0.719,0.538l-1.039,0.433l-2.118-0.512l-1.015-1.983l0.005-2.494
		l0.938-2.045l-7.432-2.04l-1.16,0.099l-1.701,0.923l-1.02,0.365l-1.005-0.005l-0.845-0.329l-4.799-3.704l-1.152-1.544l-0.374-2.159
		l0.005-1.883l-0.345-1.283l-0.995-0.834l-1.917-0.547l-0.794-0.506l-1.072-1.241l-0.784-0.407l-0.753-0.057l-0.678,0.073
		l-0.642-0.062l-0.665-0.438l-0.17-0.354l-0.165-0.918l-0.186-0.318l-0.443-0.261l-0.16,0.068l-0.129,0.198l-0.356,0.141
		l-0.577,0.125l-2.58,0.923l-0.384,0.255l-0.423,0.146l-0.642-0.104l-0.533-0.401l-0.943-1.272l-0.582-0.401h-1.201l-0.799,0.416
		l-0.05-0.112l0.147-1.455l-0.132-0.579l-0.529-0.223l-0.998-0.846l-0.044-1.87l0.543-3.132l-0.91-1.617l-2.98-1.87l-0.881-1.365
		l-0.176,0.089h-0.059l-0.029,0.044l-0.088,0.237l-0.573-0.653l-0.587-1.484l-0.558-0.653l-0.705-0.341l-0.661-0.237l-0.484-0.415
		l-0.191-0.89l0.029-0.46l0.044-0.193l0.015-0.178l-0.088-0.371l-0.132-0.178l-0.22-0.252l-0.22-0.341l-0.22-0.979l-0.279-0.475
		l-0.147-0.534l0.191-0.727h0.367l0.059,0.208l0.22,0.489l0.25-0.86l-0.132-0.964l-0.352-0.89l-0.411-0.727l-0.807,0.489
		l-0.22,0.193l-0.514-0.845l-0.308-1.008l-0.161-2.12l-0.176-0.638l-1.028-1.616l-0.529-0.682l-1.086-0.889l-0.44-0.534
		l-0.367-1.764l-0.499-0.682l-1.204-1.111l-2.73-7.764l-0.558-0.311L185.805,366l-0.294-0.815l-0.294-0.607l-0.514-0.4l-1.35-0.637
		l-0.543-0.37l-0.367-0.726l-0.264-0.918l-0.426-0.77l-0.837-0.341l-0.249-0.607l-1.982-3.48l0.807-1.732l0.264-0.962l-0.558-0.429
		l0.029-0.474l0.661-2.369l0.161-0.933l-0.323-1.954l-2.099-4.603l-0.543-1.79l-0.264-0.266l-0.675-0.237l-0.103-0.518l0.147-0.533
		l0.117-0.281l-0.191-0.902l-0.514-0.888l-0.675-0.725l-0.69-0.414l0.338-0.592l0.264,0.059l0.264,0.325l0.338,0.207h1.38
		l0.69-0.414l0.059-0.976l-0.191-1.154l-0.059-0.917l0.22-0.34l0.66-0.577l0.147-0.266v-2.056l-0.602-1.02L177.705,328.572z"/>
	<path class="st0" d="M177.248,100.588l0.964-0.567l1.062,0.134l1.082,0.31l1.044-0.057l0.559-0.469l0.711-1.341l0.572-0.449
		l0.644-0.088l0.536,0.17l2.603,1.285l0.407,0.098l0.454-0.124l0.361-0.206l0.696-0.17l0.771-0.444l0.837-0.371l0.649-0.469
		l0.515-0.934l0.211-1.016l-0.211-3.415l0.433-2.197l1.716-5.555l-0.417-1.449l-0.534-0.722l-0.76-0.763l-0.899-0.449l-0.933,0.201
		l0.657-2.904l-0.15-1.32l-1.495-0.237l0.247-0.402l0.304-0.325l0.809-0.634l-0.381-0.892l0.281-0.768l0.508-0.748l0.273-0.846
		l-0.397-2.001l-0.175-0.526l0.572-1.372l-0.124-0.459l-0.443-0.681l-0.113-0.258l0.016-0.536l0.644-3.934l0.041-1.284l-0.363-1.057
		l-1.185,0.454l-0.781-0.614l-0.479-1.124l-0.484-1.794l-0.222-0.382l-0.618-0.66l-0.825-1.103l-0.296-0.65l0.266-0.289l0.155-0.588
		l0.093-1.299l-0.283-1.304l-0.969-0.588l-0.979-0.139l-3.294-1.222l-0.459-0.278l-0.747-0.712l-0.526-0.371l-1.469-0.608
		l-0.644-0.485l-0.268-0.799l0.051-0.371l0.118-0.294l0.113-0.217l0.049-0.155l-0.1-0.407l-0.464-0.603l-0.294-1.016l-0.907-1.505
		l-0.304-0.727l-0.196-1.289l-0.211-0.309l-0.613-0.443l-0.206,0.057l-0.325,0.175l-0.397,0.062l-0.438-0.294l-0.082-0.299
		l0.134-0.299l0.188-0.284l0.106-0.294l-0.165-0.68l-0.727-0.5l-0.165-0.536L172.339,35l0.384-0.547l0.395-0.413l0.058-0.061
		l0.402-0.325l0.618,0.057l0.371,0.247l0.258,0.278l0.281,0.129l0.6-0.046l0.928-0.216l2.515-0.232l1.087,0.119l1.201,0.376
		l0.634-0.526l1.783-1.887l0.722-0.376l1.892-0.598L188.345,30l1.763,0.443l0.794,0.392h3.221h9.133h9.128h1.064h8.067h9.131h7.849
		l-0.782,1.347l0.073,0.896l0.646,0.382l1.072-0.484l0.543-0.279l0.367-0.925l0.167-0.935h0.677l0.007,0.069l-0.015,0.543
		l0.103,0.47l0.294,0.015l0.382-0.176l0.411-0.117l0.602,0.294l-0.338,0.675l-0.661,0.69l-0.455,0.352l0.323,0.807l0.015,0.602
		l-0.059,0.602l0.029,0.705l0.264,0.617l0.396,0.631l0.294,0.573l-0.073,0.44l-0.499,1.175l-0.382,4.772l-0.44,1.439l-1.057,2.026
		l-0.308,2.115l-0.47,1.101l-0.117,0.675v1.527l-0.088,0.734l-0.235,0.661l-2.055-0.91l-0.323,1.395l0.191,2.188l-0.543,1.424
		l0.954,1.513l-0.338,1.16l-0.896,1.19l-0.778,1.616l-0.44,3.965l-0.661,1.41l-0.235,0.793l-0.47,3.378l-0.528,1.381l-2.143,2.644
		l-0.617,1.307l-0.294,1.469l-0.073,1.763l0.514,0.088l0.235-0.25l0.161-0.353l0.294-0.162l0.499,0.044l0.294,0.059l0.279,0.015
		l0.47-0.118l0.411-0.294l0.308-0.382l0.44-0.294l0.881-0.059l-0.573,1.439l-0.132,0.676l-0.25,0.367l-0.073,0.25l0.103,0.206
		l0.499,0.397l0.117,0.25l-0.147,0.558l-0.675,0.881l-0.191,0.47l0.059,0.441l0.499,0.558l0.103,0.353l-0.939,2.027l-0.279,0.367
		l0.147,0.47l-0.998,2.967l0.029,1.469l-0.176,0.397l-0.514,0.617l-0.25,0.382l-0.103,0.367l-0.015,0.984l0.103,0.646l-3.458-0.138
		l-9.999-4.389l-2.28-0.351l-2.631,0.878l-3.333,0.527l-1.579-0.351l-7.367,12.641l-5.438,2.634l-1.754,4.917l2.28,2.459
		l2.456,2.107l0.61,3.149l-4.907,4.469l-0.923,1.288l-1,1.128l-1.315,0.696l0.333-0.595l-1.165-0.01l-2.33,0.65l-1.165,0.103
		l-0.657-0.196l-1.142-0.748l-0.613-0.227l-0.616,0.041l-0.497,0.196l-0.521,0.129l-0.665-0.145l-0.134-0.217l-0.139-0.816
		l-0.129-0.304l-0.217-0.145l-0.66-0.279l-3.239-1.94l-0.405-0.067l-0.696,0.258l-0.593,0.49l-0.987,1.362l-0.24,0.114l-0.006-0.019
		l-0.21-0.621l-0.433-0.428l-0.289-0.397l0.227-0.547l-0.907-0.248l-0.758-0.712l-1.247-1.615l-0.108-0.862l0.572-1.109l1.087-1.471
		l0.018-1.269l0.162-0.774l0.402-0.655l2.868-3.013l0.322-0.944l-1.144,0.423l-1.788,0.815l-1.051,0.346l-0.969-0.01l-0.554-0.537
		l0.193-1.228l0.407-0.619l1.191-1.13l0.479-0.624l0.217-0.526l0.407-1.584l1.892-4.607l0.668-1.058L177.248,100.588z
		 M238.094,87.576l-0.279-0.235l-0.25-0.705l0.015-0.69l0.22-0.676l0.352-0.69l0.338,0.382l-0.059,0.72l0.176,0.646l0.411,0.47
		l0.675,0.162l0.895,0.147l-0.176,0.294l-0.91,0.455l-0.249,0.294l-0.573-0.191L238.094,87.576z M240.149,70.655l0.543-0.617
		l0.484-0.69l0.073-1.146h0.22l0.147,0.073l0.279,0.264l-0.088,1.072l-0.426,0.764l-1.497,1.204L240.149,70.655z M244.318,62.386
		l-0.088,1.381l-0.455,1.425l-1.512,2.673l0.352-2.262v-0.837l0.029,0.176v0.132l0.059,0.088l0.25-0.029l-0.015-1.85l-0.191-0.837
		l-0.484-0.749l1.497-0.543l0.205,0.029l0.191,0.206l1.174,0.646l0.675,0.793l0.205,0.367l0.132,0.543L244.318,62.386z"/>
	<path class="st0" d="M670.073,506.143l-0.79,1.469l-1.588,1.599l-1.789,1.29l-3.232,1.133l-1.886,1.416l-2.948,2.937l-0.938,1.233
		l-0.582,0.572l-1.392,0.519l-6.236,4.9l-0.948,0.498l-5.144,2.209l-4.994,3.459l-1.263,0.535l-8.365,1.843l-3.845,0.289
		l-0.856,0.284l-0.789,0.436l-9.777,7.873l-1.165,0.641l-1.252,0.378l-1.325-0.016l-1.052-0.389l-2.031-1.114l-1.175-0.236
		l-1.536,0.699l-1.727,0.341l-6.52-0.005l-1.685,0.389l-1.335,1.172l-0.876,0.615l-1.041,0.263l-0.66,0.42l-1.984,1.902
		l-0.912,0.484l-0.552-0.021l-1.077-0.258l-0.598-0.063l-0.541,0.105l-1.01,0.473l-1.484,0.405l-0.799,0.683l-1.124,1.424
		l-4.912,3.349l-1.242,1.546l-0.028-0.017l-1.461-0.856l-3.953-0.999l-1.768-0.91l-2.752-2.907l-1.789-1.246l-2.304-0.363
		l-0.495,0.137l-1.103,0.463l-0.572,0.1l-0.593-0.163l-0.979-0.72l-0.484-0.163l-0.16-0.1l-0.263-0.468l-0.088-0.126L554,545.49
		l-0.253,0.121l-0.155,0.147v0.079l-0.389-0.008l-0.002-0.008l-3.443-11.995l-1.562-10.317l8.726-0.627l1.752-1.183l2.453-3.712
		l3.087-3.144l13.257-5.5l4.464-0.346l1.572-0.763l1.701,0.055l1.443,1.017l1.938,0.55l3.484-0.288l0.923-1.038l1.366-1.001
		l3.855-1.772l2.319-0.773l4.134-2.314l2.021-0.849l1.639,0.346l0.33,1.604l0.619,1.355l2.206-0.445l0.505-2.133l0.557-1.171
		l1.608,0.1l1.541-0.749l1.273-1.43l1.258-0.207l1.221-0.039l3.824,2.452l1.654,4.649l0.706,0.907l0.804,0.537l1.453,3.554
		l2.036,1.085l1.649-1.542l1.17-1.785l-0.268-1.814l-1.283-1.101l-0.026-1.365l0.861-1.963l0.32-2.167l1.278-1.692l2.087-0.762
		l8.056-4.599l1.742-1.33l1.598-1l0.021,0.645l0.414,1.517l0.511-0.602l0.256-0.833l0.008-0.882l-0.252-0.779l-0.451-1.018
		l0.11-0.429l0.593-0.058l0.954,0.14l0.726,0.214l1.542,0.676l0.974,0.231l1.993,0.726l0.244-0.058l0.15,0.074l0.162,0.552
		l-0.093,0.656l-0.329,0.68l-0.158,0.742l0.41,0.849l0.15,0.47l-0.369,0.256l-0.483,0.215l-0.15,0.313l0.26,0.408l0.26,0.029
		l0.264-0.116l0.239-0.037l0.832,0.516l0.39,0.078l0.17-0.4l0.037-0.528l0.154-0.297l0.308-0.058l0.524,0.219l0.609,0.421
		l1.157,1.035l0.617,0.429l-0.008-0.462l0.085-0.322l0.134-0.272l0.13-0.359l0.394,0.272l0.296,0.074l0.3-0.095l0.402-0.252
		l-0.848-0.247l-2.585-1.101l1.7-2.111l0.662,0.215l0.288,0.573l0.15,0.705l0.264,0.619l0.438,0.359l1.12,0.544l0.515,0.445
		l0.272,0.45l1.607,3.609l0.503,0.47l0.126-0.087l1.68,0.338l0.239,0.095l1.611-0.47l0.231-1.003l-0.596-0.784l-0.877,0.177
		l-0.231-0.598l0.171-0.437l0.454-0.256l0.629-0.091l0.463,0.173l0.219,0.417l0.17,0.516l0.292,0.45l0.434,0.916l-0.459,0.813
		l-0.824,0.767l-0.637,0.796l0.316-0.029l0.661,0.054l0.317-0.025l-0.54,1.721l-0.073,0.557l0.134,0.384l0.28,0.384l0.231,0.47
		L670.073,506.143z"/>
	<path class="st0" d="M352.765,33.323l2.661,1.487l10.705,5.98l10.71,5.975l8.079,4.514l2.626,1.467l10.705,5.976l10.71,5.981
		l2.263,1.263l-0.001,0.01l-1.072,19.666l0.397,2.233l1.881,1.225l2.835,0.843l0.701,2.476l-0.742,2.943l-1.263,2.677l-1.402,0.451
		l-1.206,0.568l-2.062,5.842l-27.42,0.214l-1.835-0.81l-2.799-1.914l-1.263-0.07l-1.613,0.201l-1.428-0.725l-1.129-1.749
		l-1.371-1.599l-3.685-2.148l-1.644-1.21l-1.16-1.676l-1.149-0.676l-1.371-0.273l-3.897-2.092l-1.752-0.005l-1.742-0.214
		l-3.19-2.955l-1.222,0.738l-0.34,1.741l-1.979,0.183l-3.376-0.196l-1.309,0.611l-1.969-1.096l0.021-0.472l-0.778-1.96l-0.004-0.004
		l-0.002-0.006l-1.468-1.41l-1.85-0.455l-1.444,0.734l-0.412,0.205l-0.88,0.642l-1.389,1.004l-0.47,0.22l-0.749,0.235l-0.66,0.573
		l-1.16,1.234l-1.967-0.984l-2.445-0.431l-0.388-0.069l-0.329-0.011l-2.667-0.092l-1.915,0.184l-0.537,0.05l-0.353,0.133
		l-1.026,0.382l-0.719,0.074l-0.308-0.426l-0.22-0.646l-0.543-0.514l-0.515-0.281l-0.768-0.426l-0.793-0.293l-0.625-0.234h-1.145
		l-0.998,0.529l-0.895,1.014l-0.396-0.588l-0.176-0.353l-0.019-0.066l-0.091-0.35l0.031-0.35l0.019-0.175l0.008-0.012l0.442-0.67
		l0.18-0.526l0-0.006l0.002-0.005l-0.015-0.367l-0.029-0.15l-0.066-0.379l-0.052-0.184l-0.058-0.241h-0.116l-0.001,0l0.073-0.187
		l0.14-0.339l0.102-0.054l0.045,0.056l0.07,0.09l0.247,0.062l1.191,0.053l0.202,0.011v-0.002l0.008,0l-0.008-0.05v-0.011
		l1.235,0.329l0.242,0.196l0.005-0.008l0,0l0.338-0.543l-0.015-0.69l-0.382-0.632l-0.74-0.363l0.582-0.552l0.758,0.542l0.577,0.829
		l0.1,0.146l0.068,0.136l0.296,0.609h0.34l0-0.01h0.001l-0.015-1.454l0.002,0l0.806,0.131l1.357,1.181l0.595,0.524l0.002-0.005
		l0.005,0.004l0.149-0.359l0.147-0.151l0.02-0.019l0.268-0.073l0.435-0.111l-0.004-0.006l0.005-0.001l-1.392-2.038l1.376-1.289
		l1.572,0.449l3.242,2.205l2.314,0.015l0.247,0.1l0.143,0.058l0.177-0.385l0.151-0.312l0.366-0.415l0.231-0.254l0.121-0.422
		l0.091-0.296l-0.241-0.264l-0.528-0.589l-0.396,0.22l-0.147,0.044l-0.132-0.103l-0.373-0.158l0.119-0.063l0.063-0.029h0.059
		l0.029-0.044l0.021-0.05l0.073-0.151l-0.007-0.002l0.001-0.003l-1.982-0.485l-1.574-0.141l-0.551-0.052l1.333-0.864l0.088-0.279
		l-0.396-0.558l-1.072-0.705l-0.279-0.396l0.323-0.602l-0.003,0l0.001-0.001l-0.192-0.026l-0.437-0.061l-0.558,0.029l-0.382,0.235
		l-0.132,0.499l-1.747,0.103l-1.982,1.381l-1.922,0.983l-0.29-0.204l-1.267-0.897l1.142-0.71l0.062-0.038l0.185-0.088l-0.017-0.397
		l-0.007-0.339l0.044-0.367l0.097-0.171l0.289-0.497l-0.004-0.006l0.117-0.206l0.499-1.425l0.338-0.558l1.35-1.087l1.16-0.279
		l2.965,0.044l-0.367,1.292l0.514,0.587l0.998,0.147l1.086-0.029l0.631-0.206l0.499-0.455l0.367-0.455l0.22-0.206l0.69-0.029
		l0.455-0.147l0.352-0.308l0.382-0.543l0.206-0.632l-0.088-0.411l0.015-0.308l0.543-0.353l0.117,0.132l1.585,0.382l0.264,0.338
		l0.587,0.147l0.587-0.162l0.264-0.661l-0.264-0.25l-1.321-0.911l-0.455-0.411l-0.338,0.382l-0.455-0.749l-0.279-0.353l-0.294-0.294
		l-1.072-0.69l-0.308-0.308l-0.367-0.734l0.294-0.161l1.806,0.191l5.109-0.029l0.382-0.088l0.323-0.191l0.338-0.485l0.132-0.588
		l-0.103-0.573l-0.367-0.441l-0.455,0.25l-0.426,0.044l-0.396-0.088l-0.426-0.206l0.572-0.426l0.308-0.088l0.117-0.118l0.029-0.558
		l-0.073-0.323l-0.617-0.867l-0.587,0.22l-0.44-0.029l-0.279-0.308l-0.088-0.587l-0.484,0.235l-0.47,0.088l-0.411-0.073l-0.338-0.25
		l0.705-0.529l0.763-0.059l0.763,0.029l0.705-0.294l0.499-0.705l0.235-0.793l-0.176-0.514l-0.734,0.132l-0.294-0.529l-0.455-0.44
		l-0.264-0.485l0.323-0.587l0.675-0.308l0.675,0.103l1.042,0.514l0.191,0.161l0.235,0.235l0.308,0.22l0.455,0.103l0.44-0.103
		l0.661-0.485l0.396-0.132l0.793,0.073l0.631,0.191l0.44-0.015l0.22-0.558l0.631,0.587l0.323,0.793l0.396,0.705l0.852,0.294
		l1.424-0.044l0.455,0.044l0.47,0.147l0.793,0.411l0.44,0.132l0.235-0.103l0.25-0.235l0.191-0.25l0.029-0.103l0.264,0.029
		l0.352,0.279l0.235,0.059l0.411-0.103l0.147-0.25l-0.147-0.235l-0.411-0.118l-0.103-0.191l-0.132-0.426l-0.206-0.455l-0.411-0.294
		h-0.455l-0.47,0.176l-0.763,0.499l0.029-0.573l-0.176-0.294l-0.573-0.485l-0.176-0.059l-0.235,0.059l-0.191,0.015l-0.426-1.043
		l-0.352-0.397l-0.088-0.235l-0.132-0.191l-0.44-0.22l-0.411-0.073l-0.881,0.103l-0.411-0.029l-0.661-0.382l-0.484-0.587v-0.602
		l0.807-0.485l3.053,1.028l-0.294-0.543l-0.455-0.499l-0.587-0.22l-0.705,0.235l0.088-0.294l0.015-0.132l0.029-0.088l0.206-0.162
		l-1.277-1.278l-0.323-0.719l0.587-0.734l0.851,0.338l3.068-0.338l1.116,0.059l0.514,0.162l0.91,0.529l1.013,0.118l0.382,0.161
		l0.69,0.675l-0.161,0.088l-0.161,0.338l-0.088,0.382l0.073,0.22l0.528,0.088l0.308-0.308l0.147-0.499l0.029-0.485l-0.323-0.852
		l-0.793-0.837l-1.013-0.631l-0.94-0.25v-0.308l0.103-0.161l0.103-0.323l0.103-0.235h-0.308l-0.939,0.382l-1.145-0.396l-0.631-1.086
		l0.646-1.63l0.719-0.719l0.749-0.499l1.63-0.778l0.749-0.529l1.468-1.718l-0.117-0.485l-0.514-0.631l-0.22-0.529l0.851-0.235
		l1.174,0.059l0.352-0.059l0.235-0.235l0.117-0.352l0.161-0.323l0.352-0.132l1.556-1.028L352.765,33.323z"/>
	<path class="st0" d="M411.225,65.966l8.442,4.713l10.7,5.982l10.705,5.982l10.705,5.983l10.7,5.983l10.71,5.979l10.705,5.979
		l10.705,5.985l10.705,5.98l10.71,5.986l3.819,2.136l-0.031-0.007l-2.196-0.498l-4.118-1.706l-1.624-0.952l-1.804-0.212
		l-0.974,0.338l-0.861-0.315l-2.536,0.083l-2.304,1.527l-2.984,2.444l-1.258,1.319l-1.665,0.717l-3.33,0.981l-1.149,3.283
		l0.077,2.395l0.459,2.338l1.211,1.174l1.598,0.699l3.479,2.292l1.861,3.42l0.103,9.062l-1.737,0.656l-1.582,1.066l-0.928,1.306
		l-1.139,1.028l-3.747,0.041l-1.309,1.446l-1.227,1.65l-1.526,0.356l-0.943-1.673l-0.897-0.612l-0.923-0.256l-3.639,0.186
		l-0.356,0.382l0.005,0.519l-0.366,0.826l-0.984,0.341l-1.036,0.901l-0.964,0.199l-0.902,0.349l-2.979,3.915l-0.82,2.025
		l0.433,5.713l1.118,6.316l-0.067,2.863l-0.711,0.367l-0.819-0.333l-1.412-0.057l-1.366,0.437l-2.34,0.201l-2.242,0.437
		l-0.484,1.018l-2.317,0.297l-2.477-1.045l-11.267-16.366l-2.376-4.465l-1.639-2.347l-2.876,0.971l-2.417,3.197l-1.778,1.557
		l-1.325,1.681l-0.15,1.498l-1.015,0.284l-1.087-3.438l0.35-3.639l1.232-3.589l-0.66-2.37l-1.32-0.181l-0.294,3.478l-0.866,1.79
		l-5.922,1.583l0.155,1.919l-0.871,1.317l-2.252-0.307l-1.51-1.56l0.979-1.691l1.268-1.444l-1.557-0.658l-2.01-0.395l-1.933-1.048
		l-2.108,0.018l-3.309,3.344l-1.984,0.726l-1.737,1.198l-1.402,0.46l-1.531-0.021l-4.747,2.916l-0.464,0.612l-0.16,0.734
		l-0.696,0.744l-2.927,0.899l-1.727,0.925l-1.892,0.788l-1.721,0.93l-3.422-2.511l-3.144-2.87l-0.551-1.932l0.191-2.002l1.335-1.895
		l1.711-1.56l0.304-0.71l0.082-0.759l0.979-0.416l1.175,0.32l1.355-1.289l0.433-35.652l1.737,0.258l1.881,1.515l1.185,1.835
		l1.902,0.606l0.851-0.526l0.773-0.645l2.721-1.223l1.366-2.547l3.294-14.224l-0.428-4.824l2.062-5.842l1.206-0.568l1.402-0.451
		l1.263-2.677l0.742-2.943l-0.701-2.476l-2.835-0.843l-1.881-1.225l-0.397-2.233l1.072-19.666L411.225,65.966z"/>
	<path class="st0" d="M519.833,126.655l6.886,3.851l4.118,2.302l0.763,1.228l0.881,5.415l0.108,0.658l1,6.105l-0.907,0.067
		l-0.495,0.428l-0.175,0.697l0.072,0.893l-0.943,0.072l-1.186,0.635l-1.113,0.883l-0.727,0.805l-0.253,0.444l-0.237,0.558
		l-0.129,0.583l0.077,0.527l0.361,0.367l0.82,0.103l0.253,0.393l-0.201,0.826l-0.397,0.976l0.144,0.687l2.386-0.139l1.067,0.093
		l1.051,0.279l0.943,0.454l0.696,0.64l0.376,0.77l0.866,3.078l0.5,1.023l0.686,0.899l2.716,1.952l4.257,3.073l4.252,3.074
		l4.263,3.074l4.252,3.069l4.252,3.074l4.263,3.069l3.922,2.836l-0.005,0.007l-17.009,24.367l-2.252,1.564l-1.32-1.559l-1.088-0.954
		l-0.521-0.217l-0.99-0.194l-0.5-0.331l-0.691-0.277l-3.005-0.103l-1.118,0.15l-1.835,1.153l-1.139,0.184l-1.201-0.439l-3.458-2.647
		l-4.345-2.425l-1.154-0.158l-2.567-2.109l-1.654-2.835l-0.098-3.833l0.278-3.866l-0.108-1.607l0.036-1.558l0.747-1.824
		l-0.052-1.388l-0.299-1.349l-1.098-3.792l-0.603-1.021l-0.443-2.529l0.175-5.553l-0.881-2.224l-1.479-2.603l-1.84-3.138
		l-2.68-2.915l-1.541-3.654l0.201-0.95l-0.727-0.63l-1.459-0.088l-1.381-0.444l-0.613-0.906l-0.639-0.754l-0.984,0.093l-0.995,0.289
		l-1.325,1.332l-1.366-0.139l-1.263,0.121l-1.227,0.318l-0.103-9.062l-1.861-3.42l-3.479-2.292l-1.598-0.699l-1.211-1.174
		l-0.459-2.338l-0.077-2.395l1.149-3.283l3.33-0.981l1.665-0.717l1.258-1.319l2.984-2.444l2.304-1.527l2.536-0.083l0.861,0.315
		l0.974-0.338l1.804,0.212l1.624,0.952l4.118,1.706l2.196,0.498L519.833,126.655z"/>
	<path class="st0" d="M569.302,186.474l0.33,0.239l4.263,3.07l4.252,3.07l4.252,3.075l4.263,3.076l4.257,3.071l4.257,3.076
		l4.257,3.076l4.257,3.071l4.231,3.062l0.341,0.313l0.881,0.244l0.321,1.405l-0.272,1.621l-0.929,0.859l-1.359,0.684l1.1,0.444
		l0.751,0.065l0.434,0.277l0.126,1.108l-0.061,1.063l-0.187,0.867l-0.325,0.798l-1.591,2.709l-0.641,0.611l-0.288-0.733l0.17-0.99
		l0.321-0.969l0.162-0.949l-0.312-0.88l-0.881,2.578l-0.763,0.917l-1.084-0.077l0.864,1.344l0.134,0.497l0.174,2.843l-0.15,0.501
		l-0.341,0.216l-0.775-0.244l-0.43,0.187l-0.187,0.253l-0.495,0.97l-0.085,0.684l0.718-0.041l1.595-0.656l0.036,0.754l0.548,1.202
		l0.093,0.465l-0.203,0.367l-1.899,1.662l-0.325,0.428l-0.99,2.07l-1.526,2.298l-0.162,0.359l0.39,0.367l0.544-0.416l0.771-0.978
		l0.3,0.615l-2.159,6.281l-0.544,1.101l-0.694,0.929l-0.524,0.347l-0.576,0.281l-0.455,0.391l-0.15,0.685l0.215,0.424l0.394,0.188
		l0.345,0.306l0.069,0.795l-0.67,1.99l-1.437,2.94l-1.741,2.638l-1.632,1.044l0.682,0.31l-0.329,1.036l-0.041,2.333l-0.483,0.93
		l-0.633,0.799l-0.905,1.86l-1.104,1.677l-0.357,1.081l-0.187,1.171l-0.016,3.231l-0.211,0.49l-0.325,0.347l-0.28,0.437
		l-0.195,0.469l-0.037,0.168l-4.167-0.691l-0.814,0.653l-0.995,0.334l-0.691-0.135l-0.691,0.075l-0.897,0.938l-1.093,0.345
		l-2.861,1.244l-0.655-0.36l-0.716,0.181l-1.01,0.008l-0.887-0.35l-0.551,0.365l-0.5,0.42l-1.67-0.35l-0.851-0.508l-0.758-0.757
		l-1.588,0.088l-1.371-0.581l-1.304-1.84l-2.123-0.552l-1.861-0.681l-1.402-1.547l-3.129-1.562l-3.556-0.288l-1.283,0.622
		l-1.448,0.238l-3.381-0.775l-7.556,2.031l-0.804,0.741l-1.196-0.363l-0.747,0.63l0.067,1.404l-2.015,0.645l-2.613-0.135
		l-1.35,1.366l-1.201-1.034l-3.237-3.721l-0.582-2.303l-1.685-0.702l-0.866-0.098l-0.856-0.451l-0.773,0.085l-0.634-0.236
		l-0.129-0.363l-0.273-0.207l-1.588-0.536l-0.753,1.337l-0.907,5.754l-1.608,1.441l-1.804,0.736l-1.577,1.92l-2.118,1.578
		l-0.984,2.024l-1.335,1.335l-1.335-0.881l-1.124-1.205l0.005-0.474l-0.18-0.327l-0.191-1.311l1.031-1.474l-1.325-0.443
		l-1.505-0.775l-0.753-5.296l5.927-4.051l1.577-2.577l1.072-5.871l0.948-2.696l4.582-5.929l1.118-3.326l1.103-4.835l0.051-1.426
		l-0.412-1.312l0.418-1.165l7.345-8.898l2.752-2.481l2.484,0.005l2.422,0.812l2.964,0.704l3.067-0.722l2.484-0.833l3.412-0.724
		l0.876-0.044l1.314,0.957l1.381,0.784l2.402,0.093l-0.433-1.894l-0.835-1.288l-0.577-1.407l-0.35-1.635l-0.984-1.311l-0.691-2.139
		l0.031-2.415l0.392-3.307l2.49-2.635l2.252-1.564l17.009-24.367L569.302,186.474z"/>
	<path class="st0" d="M612.614,397.146l0.402,0.821l0.41,1.321l0.219,1.403l0.065,1.534l-0.333,2.921l0.154,1.42l1.664,1.715
		l0.625,1.166l0.434,1.297l0.207,1.141l-0.089,4.212l-0.284,0.985l1.745,0.497l0.296,0.316l0.142,0.402l0.203,0.353l0.544,0.156
		l0.998,0.074l0.3,0.296l0.024,0.624l0.211,1.068l0.438,0.826l0.548,0.374l0.596,0.263l0.645,0.452l0.426,0.707l0.572,1.766
		l0.548,0.813l1.404,1.068l0.3,0.46l-0.698,0.197l-0.593-0.037l-0.357-0.123l-0.731-0.563l-0.097-0.107l-0.958-0.896l-1.01-1.241
		l-0.759-0.444l-0.958,0.132l-0.56,0.23l-0.292,0.078l-0.207,0.144l-1.01,1.446l0.755,0.288l3.011-0.288l-0.662,0.822l-0.166,0.526
		l0.385,0.292l0.974,0.086l0.848,0.271l0.008,0.703l-0.292,0.998l-0.065,1.126l0.122,0.189l0.446,0.345l0.114,0.189l0.012,0.953
		l-0.012,0.082l-0.268,0.509l-0.041,0.181l0.105,0.123l0.235,0.09l0.227,0.156l0.114,0.304l-0.146,0.485l-0.288,0.329l-0.199,0.362
		l0.101,0.559l0.365,0.81v0.382l-0.207,0.506l0.706-0.152l0.86-0.411l0.803-0.51l0.552-0.46l0.601-0.041l0.722,0.666l2.147,2.734
		l0.852,1.451l0.239,1.558l-0.787,1.591l-0.037,0.358l0.292,0.415l0.377,0.419l0.219,0.378v0.563l-0.276,1.016l-0.065,0.489
		l0.158,1.678l-0.17,0.605l-0.67,0.856l-0.67,0.588l-0.438,0.099l-0.487-0.074l-0.791,0.078l-0.621,0.292l-0.256,0.469l0.012,0.703
		l0.158,0.979l0.446-0.222l0.568-0.103l1.031-0.049l0.122-0.555l0.252-0.214l0.491,0.251l0.317,0.333l0.17,0.136l0.207,0.049
		l0.552,0.235l0.081,0.527l-0.11,0.576l-0.012,0.391l0.341,0.465l1.193,1.103l0.422,0.996l0.589,2.757l0.523,0.766l0.674,0.477
		l-0.13,0.325l-0.398,0.317l-0.114,0.42l0.247,0.547l0.243,0.35l0.661,0.659l0.284,0.552l-0.17,1.029l0.455,0.98l-0.406,0.329
		l-1.006,0.387l-0.84,0.799l-0.223,0.428l0.406,0.189l1.981-0.045l0.373,0.045l0.162,0.362l0.394,1.367l0.312,0.519l0.82,0.601
		l0.39,0.379l0.333,0.577l0.333,1.438l-0.361,1.034l-0.938,0.494l-1.445-0.173l0.422,0.684l1.42,1.1l0.049,0.445l-0.536,0.358
		l-1.721,0.733l-1.534,0.379l-0.024,0.581l0.629,1.282l-0.097,0.944l-0.365,0.713l-0.58,0.573l-0.73,0.532l1.282-0.235l2.33-2.831
		l1.023,0.111l0.665,0.375l1.49-0.107l1.059,1.067l0.657,0.086l0.731-0.033l0.67,0.124l1.242,0.96l3.023,5.041l0.073,2.275l-1.598,1
		l-1.742,1.33l-8.056,4.599l-2.087,0.762l-1.278,1.692l-0.32,2.167l-0.861,1.963l0.026,1.365l1.283,1.101l0.268,1.814l-1.17,1.785
		l-1.649,1.542l-2.036-1.085l-1.453-3.554l-0.804-0.537l-0.706-0.907l-1.654-4.649l-3.824-2.452l-1.221,0.039l-1.258,0.207
		l-1.273,1.43l-1.541,0.749l-1.608-0.1l-0.557,1.171l-0.505,2.133l-2.206,0.445l-0.619-1.355l-0.33-1.604l-1.639-0.346l-2.021,0.849
		l-4.134,2.314l-2.319,0.773l-3.855,1.772l-1.366,1.001l-0.923,1.038l-3.484,0.288l-1.938-0.55l-1.443-1.017l-1.701-0.055
		l-1.572,0.763l-4.464,0.346l-13.257,5.5l-3.087,3.144l-2.453,3.712l-1.752,1.183l-8.726,0.627l-2.484-4.617l-1.108-1.254
		l-0.856-1.306l-0.711-2.381l-1.283-2.242l-0.335-1.119l-0.536-1.193l-1.227-2.052l-1.356-1.083l-1.505-0.852l-2.335-1.698
		l-27.688-6.793l-12.056-4.643l-2.464-2.116l0.15-3.644l-0.186-3.685l0.34-3.085l1.268-2.771l4.129-3.764l3.809-4.221l2.18-3.15
		l1.191-2.941l0.68-3.021l3.891-12.26l0.814-1.389l0.588-1.507l0.428-3.211l2.294-1.911l2.778-0.893l0.356-1.973l-1.474-2.169
		l0.428-3.15l-1.32-3.274l0.026-1.677l-0.706-4.575l0.32-1.468l2.16-4.435l1.155-3.874l0.149-1.118l0.026-1.066l-0.201-0.641
		l-0.861-1.551l0.397-1.475l1.01-1.303l1.015-1.024l0.861-1.17l1.417-2.592l0.959-1.229l0.299-0.198l0.711-0.247l0.366-0.258
		l0.247-0.359l0.237-0.708l0.732-1.021l0.603-1.458l1.727-2.745l0.387-0.432l0.696-0.312l0.907-0.255l0.783-0.411l0.335-0.773
		l0.155-0.789l0.381-0.661l1.268-1.492l0.16-0.323l0.067-0.359l0.01-0.502l0.113-0.45l0.273-0.305l0.335-0.273l0.304-0.349
		l1.015-1.757l0.567-0.705l0.799-0.664l1.294-0.726l0.407-0.336l0.32-0.445l0.495-0.981l0.32-0.403l6.968,5.327l2.531,1.549
		l5.912,2.069l6.149,1.351l2.773,1.414l4.587,4.049l2.433,1.674l3.685,3.54l0.809,4.772l0.814,2.051l2.84,0.089l2.319-1.412
		l1.062-2.785l1.289-2.105l3.479-0.781l0.959,0.294l0.474,0.742l0.835,0.292l3.118-0.667l6.206-2.089l9.68-2.13l2.489-0.083
		l1.856,1.479L612.614,397.146z"/>
	<path class="st0" d="M620.098,339.927l-0.398,0.532l-0.28,0.896l-0.118,0.806l-0.219,0.74l-0.576,0.691l-0.645,0.511l-0.312,0.127
		l-0.418,0.049l-0.39,0.156l0.049,0.376l0.223,0.446l0.138,0.393l-0.292,0.569l-0.69,0.131l-0.791-0.049l-0.613,0.037l0.487,0.81
		l0.495,0.561l0.337,0.642l0.004,1.08l-0.219,0.737l-0.442,1.031l-0.532,0.921l-1.319,1.22l-0.58,1.899l-0.877,5.543l0.057,1.032
		l0.207,1.04l0.637,1.613l0.17,0.942l-0.296,0.754l-0.17,0.713l0.755,1.839l-0.243,0.885l-2.22,2.601l1.526-0.34l1.088-1.249
		l0.714-1.671l0.422-1.622l0.771,0.635l0.597,0.684l0.073,0.721l-0.791,0.745l1.875-0.184l0.852,0.094l0.877,0.618l1.356,1.327
		l0.162,0.709l-0.325,1.246l-0.739,1.631l-0.065,0.619l0.536,1.758l0.049,1.967l0.219,0.902l0.767-0.475l0.256-0.242l-0.158,1.549
		l-0.621,1.422l-1.607,2.562l-1.656,4.53l-0.73,1.378l-0.341-0.164l-0.154,0.012l-0.162,0.086l-0.39,0.066l0.349,0.746l-0.114,1.804
		l0.138,0.89l-0.714-0.316l-0.008,0.402l-0.3,0.947l-0.812-0.898l-0.414-0.308l-0.475-0.143l0.394,0.734l0.024,0.591l-0.357,0.439
		l-0.743,0.275l0.231,0.471l-0.712-0.263l-1.856-1.479l-2.489,0.083l-9.68,2.13l-6.206,2.089l-3.118,0.667l-0.835-0.292
		l-0.474-0.742l-0.959-0.294l-3.479,0.781l-1.289,2.105l-1.062,2.785l-2.319,1.412l-2.84-0.089l-0.814-2.051l-0.809-4.772
		l-3.685-3.54l-2.433-1.674l-4.587-4.049l-2.773-1.414l-6.149-1.351l-5.912-2.069l-2.531-1.549l-6.968-5.327l0.397-0.497
		l0.144-0.565l0.124-1.153l0.552-2.131l0.144-0.281l0.294-0.367l0.175-0.172l0.18-0.094l0.186-0.416l0.283-0.424l0.216-0.229
		l-0.113-2.453l0.546-2.362l-0.016-2.629l0.402-2.522l1.484-1.342l1.923-0.663l4.433-0.853l1.825,0.203l1.742,0.437l2.5-0.468
		l2.433-0.848l8.03-1.386l0.268-1.83l-0.984-2.126l-2.16-6.245l1.216-3.736l1.412-1.844l1.856-1.125l1.979-0.236l1.103-2.135
		l1.804-2.257l1.247-2.545l-0.294-0.654l-0.484-0.569l-0.165-1.784l-0.933-0.737l-1.263,0.094l-0.763-0.514l-1.015-0.21
		l-0.758,0.304l-0.784,0.192l-0.598-0.27l-0.474-0.467l-0.887-0.553l-1.093,0.042l-1.943-2.791l0.464-2.954l1.278-2.99l-0.856-3.773
		l-0.881-0.182l-0.943,0.073l-0.546,0.275l-0.479,0.413l-1.16,0.208l-1.18-0.127l-4.994-1.876l-1.448-0.729l-1.438-0.205
		l-0.917-0.418l-0.474-1.134l-0.644-0.825l-0.484-0.815l0.191,0.029l0.046-1.103l0.907-0.999l1.268-2.954l1.036-7.673l-0.16-4.04
		l-0.907-1.094l-1.289-0.62l0.325-0.433l0.722-0.14l-1.149-0.205l-1.33-0.412l-0.737-1.083l-0.582-1.208l-1.273-1.659l-1.35-2.926
		l-0.897-0.956l-0.325-1.376l-0.077-1.433l-1.51-2.573l-2.361-1.801l7.556-2.031l3.381,0.775l1.448-0.238l1.283-0.622l3.556,0.288
		l3.129,1.562l1.402,1.547l1.861,0.681l2.123,0.552l1.304,1.84l1.371,0.581l1.588-0.088l0.758,0.757l0.851,0.508l1.67,0.35l0.5-0.42
		l0.551-0.365l0.887,0.35l1.01-0.008l0.716-0.181l0.655,0.36l2.861-1.244l1.093-0.345l0.897-0.938l0.691-0.075l0.691,0.135
		l0.995-0.334l0.814-0.653l4.167,0.691l-0.268,1.276l-0.475,1.02l-0.369,1.094l0.053,1.212l0.183,0.322l0.621,0.718l0.219,0.331
		l0.475,1.931l0.207,0.498l0.292,0.29l1.1,0.706l0.779,0.661l0.089,0.31l0.195,1.894l-0.122,1.204l-0.349,1.082l-0.593,0.731
		l0.381,1.249l0.171,2.813l0.625,1.25l0.544,0.396l0.613,0.318l0.515,0.343l0.215,0.486l0.077,0.539l0.219,0.564l0.325,0.519
		l0.402,0.429l0.288,0.208l0.252,0.102l0.653,0.033l0.341,0.147l0.17,0.327l0.142,0.351l0.227,0.237l0.629,0.114l1.384,0.074
		l0.54,0.31l0.507,0.192l0.54-0.192l-0.049-0.4l-0.434-0.192l-0.803-0.315l-0.982-0.654l1.429,0.441l1.039,0.466l2.76,2.622
		l1.644,1.985l-0.466,0.191l-0.85,0.965l-0.923,0.781l-0.912,2.226l-0.247,2.442l-0.634,2.188l-1.407,1.78l-0.113,0.75l1.201,0.075
		l0.629,0.542l0.021,0.955l0.376,1.736l1.407,0.893l0.258,0.999l0.448,1.075l-0.541,0.955l-0.995,0.589l-0.593,1.033l-0.253,1.207
		l-0.887,1.067l-0.603,1.189l0.593,0.545l0.959-0.343l1.026,0.969l1.155-0.74l0.67-1.13l1.015-0.776l0.763,0.351l0.897,0.306
		l0.758-0.646l0.438-0.883l0.722,0.104l0.783-0.07l1.144-1.662l1.67-0.195l0.644,0.057l0.722-0.07l1.242,0.169l1.289,0.374
		l1.392,1.602l1.093,1.797l0.077,7.129l0.665-0.208l0.572,0.774L620.098,339.927z M643.085,362.853l0.763,0.848l-0.081,1.622
		l-0.795,3.391l-1.421,3.269l-0.666,0.909l-0.097,0.373l0.008,0.319l-0.065,0.328l-0.341,1.032l-0.15,0.27l-0.434,0.59l-0.089,0.357
		l-0.243,0.602h-0.593l-1.38-0.41l-1.449,0.475l-0.633,1.09l-0.304,1.156l-0.475,0.68l-1.972,0.779l-1.01,0.229l-0.828,0.025
		l-1.006-0.41l-1.319-1.414l-0.804-0.615l0.467-0.111l0.844-0.033l0.422-0.172l0.008-0.139l0.13-0.361l0.162-0.328l0.073-0.012
		l0.114-0.381l0.284-0.09l0.341,0.025l0.284-0.09l2.151-2.094l0.722-1.151l-0.463-0.565l0.28-0.844l0.572-0.393l0.779-0.107
		l0.913,0.008l0.832-0.168l1.558-0.725l0.852-0.172l-0.276-0.406l-0.471-0.074l-1.291,0.135v-0.311l0.601-0.147l0.528-0.279
		l0.909-0.639l1.067-0.442l0.459-0.393l0.345-1.29l0.402-0.749l0.495-0.655l0.442-0.278l0.243-0.262l0.507-1.298L643.085,362.853z
		 M635.423,380.834l1.601-0.178l1.127,0.059l0.237,0.712l-0.534,0.653l-2.076,2.314l-1.482,1.364l-0.83-0.059l-0.296-0.83
		l0.297-1.305l0.593-1.068L635.423,380.834z"/>
	<path class="st0" d="M604.859,308.794l1.315,0.944l0.39,0.429l0.751,1.291l0.442,0.462l0.848,0.511l0.422,0.372l0.333,0.568
		l0.199,0.654l0.069,0.637l0.309,1.25l0.743,1.373l0.901,0.67l0.804-0.866l0.219,1.455l-0.231,1.958l0.024,1.778l1.007,0.948
		l-0.033-0.916l-0.081-0.388l-0.223-0.413l0.913,0.057l0.722,0.282l1.421,0.862l0.763,0.204l1.51,0.135l0.625,0.347l0.739,0.266
		l1.826-0.02l0.357,0.286l0.211,0.691l0.917,1.214l0.418,1.484l2.386,3.164l0.158,0.348l-0.057,0.487l-0.243,0.307l-0.26,0.262
		l-0.122,0.319l0.426,3.206l-0.053,1.325l-0.747-0.07l-0.503,0.638l-0.378,1.362l-0.292,0.589l-0.556,0.442l-0.471-0.012
		l-0.357-0.446l-0.17-0.855l-2.094,1.468l-0.057,0.074l-0.037-0.039l-0.572-0.774l-0.665,0.208l-0.077-7.129l-1.093-1.797
		l-1.392-1.602l-1.289-0.374l-1.242-0.169l-0.722,0.07l-0.644-0.057l-1.67,0.195l-1.144,1.662l-0.783,0.07l-0.722-0.104
		l-0.438,0.883l-0.758,0.646l-0.897-0.306l-0.763-0.351l-1.015,0.776l-0.67,1.13l-1.155,0.74l-1.026-0.969l-0.959,0.343
		l-0.593-0.545l0.603-1.189l0.887-1.067l0.253-1.207l0.593-1.033l0.995-0.589l0.541-0.955l-0.448-1.075l-0.258-0.999l-1.407-0.893
		l-0.376-1.736l-0.021-0.955l-0.629-0.542l-1.201-0.075l0.113-0.75l1.407-1.78l0.634-2.188l0.247-2.442l0.912-2.226l0.923-0.781
		l0.85-0.965L604.859,308.794z"/>
	<path class="st0" d="M617.9,280.621l0.055,0.09l0.552,2.298l0.304,0.176l1.059,0.167l0.109,0.673l-0.126,0.612l-0.215,0.62
		l-0.11,0.678l0.024,0.8l0.097,0.608l0.203,0.559l0.357,0.616l-0.597,0.739l-0.256,0.408l-0.171,0.567l0.722-0.306l0.447,0.306
		l0.377,0.563l0.499,0.437l0.036-0.743l0.329-0.49l0.402-0.037l0.248,0.612l0.227-0.029l0.061-0.033v-0.086l0.061-0.196l0.804,0.208
		l0.008-1.045l-0.235-1.49l0.106-1.098l0.868,1.147l0.446,1.425l0.925,7.332l0.183,0.453l1.343,2.377l-0.227,2.169l-1.258,1.507
		l-1.786,0.6l-1.834-0.539l-0.722-0.649l-0.674-0.882l-0.487-1.005l-0.982-4.275l0.114-0.751l-1.12,0.343l0.008,0.543l0.467,0.661
		l0.304,0.682l-0.061,1.127l-0.244,0.274l-1.392-0.519l0.219-0.964l-0.284-0.772l-1.299-1.376l-1.567-2.425l-0.438-0.367l-0.051-0.3
		l-0.149-1.034l-0.876-0.928l-0.505-1.138l-0.088-1.28l0.304-3.934l-0.253-0.993l-0.077-1.013l3.623-0.246l1.907-1.265l0.278-0.168
		L617.9,280.621z"/>
	<path class="st0" d="M608.289,282.285l-0.585-1.969l0.219-2.816l-0.057-0.612l0.049-0.588l0.138-0.51l0.211-0.371l0.15,0.265
		l0.385,0.514l0.146,0.277l0.832-1.355l1.782-1.485l0.824-0.959l0.41-1.579l0.349-3.708l0.909-0.906l0.584,1.53l1.522,2.749
		l0.304,1.762l-0.353,2.109l-0.02,0.783l0.154,0.771l0.438,1.428l0.089,0.738l0.227,0.779l0.903,1.485l-0.004,0.002l-0.278,0.168
		l-1.907,1.265l-3.623,0.246l-1.804-0.163l-1.814,0.155L608.289,282.285z M609.693,269.028l-0.034,0.686l0.241,0.892l0.412,0.617
		l-0.343,0.514l0.309,0.651l0.001,0.994l-0.617,0.137l-0.549-0.034l-0.103-0.72l0.102-0.892l0.136-1.406l-0.138-1.029
		L609.693,269.028z"/>
	<path class="st0" d="M613.783,292.924l-0.381-0.318l-0.678,0.371v0.367l0.292,0.045l0.036,0.147l-0.04,0.22l0.053,0.274
		l-0.67-0.466l-0.211,0.784l0.175,1.131l0.536,0.58l-0.122,0.065l-0.077,0.11l-0.191,0.024l-0.463-0.2l-0.451-0.29l-0.17-0.192
		l-0.114-0.204l-2.516-2.911l-0.471-0.788l-0.637-2.253l-0.438-0.902l1.79-2.192l-0.406-2.898l-0.34-1.145l0.181,0.01l1.814-0.155
		l1.804,0.163l0.077,1.013l0.253,0.993l-0.304,3.934l0.088,1.28l0.505,1.138l0.876,0.928l0.149,1.034L613.783,292.924z"/>
	<path class="st0" d="M641.101,239.628l-0.013,2.359l-0.357,0.807l0.373,0.375l-0.597,0.701l-1.481,4.426l-0.382,0.538l-0.207,0.212
		l-0.073,0.318l-0.02,0.848l-0.227,0.66l-0.438,0.114l-0.288-0.404l0.243-0.893h-0.272l-0.337,0.815l-0.174,0.298l-0.235,0.257
		l0.166,0.53l-0.264,0.559l-0.56,0.518l-0.706,0.448l-0.479,0.13l-0.134-0.188l0.17-0.318l0.442-0.277v-0.375l-0.71,0.179
		l-0.536,0.334l-0.41,0.082l-0.357-0.595l-1.737,0.057l-0.722-0.236l-0.292-0.677l0.024-1.753l0.195-0.799l0.463-0.693l-0.308-0.538
		l0.625-0.106l1.753,0.302l-0.402-0.709l-1.043-1.28l-0.284-0.774l0.779,0.2l0.982,0.073l0.881-0.151l0.487-0.465l-0.572-0.13
		l-0.487-0.183l-0.402-0.281l-0.312-0.432l0.779,0.008l1.193-0.31l0.787-0.041l0.901,0.469l0.495-0.143l0.341-1.011l-1.007,0.375
		l-1.217-0.342l-2.273-1.435l-0.491,0.318l-0.609-0.187l-0.564-0.51l-0.373-0.648l0.536,0.22l0.353,0.257l0.337,0.098l0.471-0.232
		l0.479,0.147l1.696,0.257l0.925-0.029l-0.373-0.375l0.381-0.97l-0.187-0.827l0.458-0.24l1.443,0.041l0.412,0.58l-0.165,0.704
		l0.165,0.704l0.99,0.207l0.948-0.497L641.101,239.628z M627.115,250.257l0.438,0.233l0.73,0.466l0.526,0.729l0.585,0.904
		l0.788,0.291l0.759,0.203l0.497,0.641l-0.116,0.613l-1.342,0.089l-0.876-0.699l-0.76-0.903l-0.438-0.641l-0.584-0.612l-0.526-0.729
		L627.115,250.257z"/>
	<path class="st0" d="M635.447,238.6l-0.536-0.265l-0.674,0.701l0.26-1.019l0.142-0.322l-0.292-0.371l-0.39-0.245l-0.499-0.02
		l-0.592,0.322l0.114-0.554l0.077-0.228l0.183-0.301l-0.203-0.595l0.065-0.709l0.26-0.53l0.377-0.045l0.589,0.281l0.268-0.171
		l-0.04-0.432l-0.317-0.505l-0.43-0.253l-1.615-0.619l0.146-0.477l0.69-0.558l0.211-0.517l-0.714,0.342l-0.406-0.925l0.268-0.725
		l0.674-0.236l0.869,0.517l0.195-0.803l-0.56-0.468l-0.812-0.436l-0.56-0.684l-0.024-0.578l0.304-1.401l0.061-0.762l0.114,0.257
		l0.118,0.208l0.142,0.147l0.15,0.049l0.385,0.22l0.272,0.477l0.166,0.481l0.049,0.22l0.552-0.077l0.187-0.371l0.105-0.411
		l0.308-0.196l0.252,0.175l0.804,0.803l0.17,0.232l2.301,1.32l0.418,0.391l0.032,0.574l0.122,0.501l0.207,0.183l0.329-0.391
		l-0.036-0.403l-0.191-0.481l0.008-0.558l0.593-0.607l0.053,0.367l0.174,0.375l0.073,0.285l0.41-0.823l0.292-1.002l0.11-0.945
		l-0.097-0.652l0.674,0.44v1.022l-0.13,1.194l0.564,1.874l-0.56,0.904l-0.889,0.701l-0.674,0.334l0.248,0.888l-0.158,0.97
		l-0.304,0.982l-0.158,0.949l0.479,1.5l0.045,0.269l0.459-0.212l0.041-0.477l-0.089-0.489l0.081-0.249l0.633,0.277l0.081,0.88
		l-0.341,1.923l-0.003,0.592l-1.402,0.471l-0.948,0.497l-0.99-0.207l-0.165-0.704l0.165-0.704l-0.412-0.58l-1.443-0.041
		L635.447,238.6z"/>
	<path class="st0" d="M538.636,378.244l-0.32,0.403l-0.495,0.981l-0.32,0.445l-0.407,0.336l-1.294,0.726l-0.799,0.664l-0.567,0.705
		l-1.015,1.757l-0.304,0.349l-0.335,0.273l-0.273,0.305l-0.113,0.45l-0.01,0.502l-0.067,0.359l-0.16,0.323l-1.268,1.492
		l-0.381,0.661l-0.155,0.789l-0.335,0.773l-0.783,0.411l-0.907,0.255l-0.696,0.312l-0.387,0.432l-1.727,2.745l-0.603,1.458
		l-0.732,1.021l-0.237,0.708l-0.247,0.359l-0.366,0.258l-0.711,0.247l-0.299,0.198l-0.959,1.229l-1.417,2.592l-0.861,1.17
		l-1.015,1.024l-1.01,1.303l-0.397,1.475l0.861,1.551l0.201,0.641l-0.026,1.066l-0.149,1.118l-1.155,3.874l-2.16,4.435l-0.32,1.468
		l0.706,4.575l-0.026,1.677l1.32,3.274l-0.428,3.15l1.474,2.169l-0.356,1.973l-2.778,0.893l-2.294,1.911l-0.428,3.211l-0.588,1.507
		l-0.814,1.389l-3.891,12.26l-3.711,1.095l-4.443,3.333l-1.603,0.721l-3.933,2.505l-3.314,2.994l-2.876,3.444l-4.005,3.497
		l-4.613,2.548l-3.386,0.092l-1.263-2.402l2.721-3.573l1.557-4.088l-2.01-3.692l-1.551-3.848l0.052-1.641l-0.649-1.417l-0.562,0.28
		l-1.031,0.293l0.021,2.276l-0.448,1.263l-2.206,3.14l-1.289,1.354l-0.289,0.225l-4.129,0.596l-3.041-0.518l-4.35,1.124l-1.33-0.8
		l-0.268-0.426l-0.459,0.131L453.04,468l0.144-0.641l-2.196,0.628l-2.252,1.979l-0.464,1.368l-0.83,1.059l-1.768,0.12l-1.794-0.269
		l-6.948,0.259l-2.17-1.684l0.325-3.067l0.799-0.656l1.103-0.065l0.959-0.797l2.201-3.505l1.711-2.13l0.35-1.064l-0.464-1.069
		l0.201-1.599l0.758-1.552l2.02-1.85l0.768-2.539l-0.861-1.685l-0.562-1.779l-0.17-3.596l-0.232-1.029l-0.01-0.83l0.325-0.478
		l-0.175-0.478l-3.201,3.629l-2.943,2.771l-1.948,0.752l-2.02,0.486l-0.149-2.4l-0.686-2.298l-9.437-7.448l-3.417-5.232
		l-1.072-0.514l-0.83,0.704l-0.943,0.454l-0.603-1.978l0.185-3.592l-0.454-1.015l-0.902-0.428l-0.072-0.798l1.268-1.86l-0.057-2.243
		l-0.825-2.039l0.253-2.227l4-0.125l4.556,1.314l5.711,0.967l0.804,1.178l0.237,4.274l1.072,0.915l0.603-2.282l-0.077-2.402
		l1.855-6.424l1.479-1.421l4.618-2.145l3.541-3.192l1.871-5.229l3.433-4.301l3.861-3.599l4.366-2.674l1.85,0.391l1.608-0.404
		l2.892-0.443l0.861-1.471l-0.32-1.692l-0.268-0.828l-0.067-0.867l0.026-0.648l0.077-0.536l1.567-1.504l3.634-2.795l4.386-1.621
		l4.69,0.466l4.402,1.306l3.778-1.096l1.819-4.47l2.247-4.214l3.582-3.303l2.448-3.235l-1.041-0.242l-0.515,0.003l-0.165-0.026
		l-0.742-0.32l-2.5-0.242l-0.412,0.016l-0.68,0.242l-0.691,0.351l-0.773,0.127l-0.917-0.408l-0.371-0.458l-0.108-0.536l0.196-1.573
		l-0.046-0.179l-0.129-0.182l-0.289-0.231l-0.356-0.164l-0.742-0.169l-1.289-0.148l-0.995-0.406l-1.165-0.257l-0.201-0.125
		l-0.464-0.59l-0.866-0.712l-1.051-0.434l-2.273-0.538l-0.655-0.075l-1.108,0.2l-0.675,0.039l-1.469-0.663l-0.856-1.476
		l-1.113-5.081l1.84-1.915l0.376-2.351l-0.618-2.421l-0.314-2.468l0.629-2.27l2.129-4.475l4.092-2.542l0.247-2.248l-0.253-9.03
		l1.175-3.732l0.768-1.098l-0.026-1.251l-0.567-0.802l0.144-0.802l0.711,0.2l0.701,0.106l0.572-0.903l0.299-1.061l1.046-2.509
		l1.227-4.913l2.056-1.019l2.701-4.079l-1.356-11.824l0.072-2.871l1.49-2.428l2.665-0.876l7.262-5.853l0.753,5.296l1.505,0.775
		l1.325,0.443l-1.031,1.474l0.191,1.311l0.18,0.327l-0.005,0.474l1.124,1.205l1.335,0.881l1.335-1.335l0.984-2.024l2.118-1.578
		l1.577-1.92l1.804-0.736l1.608-1.441l0.907-5.754l0.753-1.337l1.588,0.536l0.273,0.207l0.129,0.363l0.634,0.236l0.773-0.085
		l0.856,0.451l0.866,0.098l1.685,0.702l0.582,2.303l3.237,3.721l1.201,1.034l1.35-1.366l2.613,0.135l2.015-0.645l-0.067-1.404
		l0.747-0.63l1.196,0.363l0.804-0.741l2.361,1.801l1.51,2.573l0.077,1.433l0.325,1.376l0.897,0.956l1.35,2.926l1.273,1.659
		l0.582,1.208l0.737,1.083l1.33,0.412l1.149,0.205l-0.722,0.14l-0.325,0.433l1.289,0.62l0.907,1.094l0.16,4.04l-1.036,7.673
		l-1.268,2.954l-0.907,0.999l-0.046,1.103l-0.191-0.029l0.484,0.815l0.644,0.825l0.474,1.134l0.917,0.418l1.438,0.205l1.448,0.729
		l4.994,1.876l1.18,0.127l1.16-0.208l0.479-0.413l0.546-0.275l0.943-0.073l0.881,0.182l0.856,3.773l-1.278,2.99l-0.464,2.954
		l1.943,2.791l1.093-0.042l0.887,0.553l0.474,0.467l0.598,0.27l0.784-0.192l0.758-0.304l1.015,0.21l0.763,0.514l1.263-0.094
		l0.933,0.737l0.165,1.784l0.484,0.569l0.294,0.654l-1.247,2.545l-1.804,2.257l-1.103,2.135l-1.979,0.236l-1.856,1.125l-1.412,1.844
		l-1.216,3.736l2.16,6.245l0.984,2.126l-0.268,1.83l-8.03,1.386l-2.433,0.848l-2.5,0.468l-1.742-0.437l-1.825-0.203l-4.433,0.853
		l-1.923,0.663l-1.484,1.342l-0.402,2.522l0.016,2.629l-0.546,2.362l0.113,2.453l-0.216,0.229l-0.283,0.424l-0.186,0.416
		l-0.18,0.094l-0.175,0.172l-0.294,0.367l-0.144,0.281l-0.552,2.131l-0.124,1.153l-0.144,0.565L538.636,378.244z"/>
	<path class="st0" d="M491.779,280.707l-1.49,2.428l-0.072,2.871l1.356,11.824l-2.701,4.079l-2.056,1.019l-1.227,4.913l-1.046,2.509
		l-0.299,1.061l-0.572,0.903l-0.701-0.106l-0.711-0.2l-0.144,0.802l0.567,0.802l0.026,1.251l-0.768,1.098l-1.175,3.732l0.253,9.03
		l-0.247,2.248l-4.092,2.542l-2.129,4.475l-0.629,2.27l0.314,2.468l0.618,2.421l-0.376,2.351l-1.84,1.915l-0.268-1.214l-0.314-0.72
		l-0.85-0.556l-1.196-0.242l-2.309,0.031l-1.34,0.434l-0.665,0.083l-0.624-0.325l-0.18-0.379l-0.139-0.99l-0.191-0.395l-0.278-0.377
		l-0.572-1.167l-0.376-0.366l-0.763-0.47l-0.253-0.226l-0.459-1.029l-0.345-1.135l-0.587-0.919l-1.165-0.379l-0.964-0.158
		l-4.51-1.802l-0.67-0.068l-1.093,0.06l-0.567-0.047l-0.397-0.2l-0.722-0.195l-2.886,0.696l-1.041-0.192l-1.974-0.686l-0.866-0.153
		l-0.742-0.33l-0.892-0.579l-0.505-0.122l-4.386-1.083l-1.603,0.117l-1.763-0.143l-3.562-1.968l-2.397-0.878l-2.402-0.267
		l-0.716-0.421l0.01-0.794l-0.624-1.01l-1.118-0.607l-2.34-0.802l-2.392-0.21l-1.67,0.275l-1.691,0.003l-1.422,0.363l-1.021,1.08
		l-5.025,0.784l-4.84-2.936l-0.232-5.339l-0.809-4.677l6.283-0.291l1.381-3.35l-0.881-8.597l0.515-4.51l0.83-1.6l0.021-1.807
		l-0.469-1.978l-1.01-1.773l-0.412-4.358l1.082-4.512l0.186-5.818l1.773-4.171l1.283-1.883l0.484-1.917l0.247-2.023l1.551-1.355
		l1.026-1.264l-0.557-1.45l-1.655-1.797l-1.263-2.079l-0.113-0.968l-0.217-0.811l-0.474-0.111l-0.356-0.311l-0.531-0.645
		l-0.742-0.474l-0.887-1.46l-0.613-1.579l-1.361-1.455l-1.149-1.667l-0.794-3.401l-0.902-1.962l-0.639-2.032l0.046-1.868
		l-0.155-1.861l-1.021-1.677l0.263-1.672l12.164-8.351l0.448-1.299l0.825-1.666l-0.201-1.764l0.67,0.078l0.608,0.295l4.567,0.422
		l2.603-0.44l1.098-1.779l3.427-6.975l2.531-4.008l0.474-1.908l-0.881-1.768l-0.278-0.799l-0.093-0.845l0.232-0.876l0.448-0.264
		l1.098,0.424l3.922-2.696l2.149-2.057l0.531-0.853l0.804-0.569l0.866,0.359l0.84,0.473l1.206-0.6l1.221-0.837l2.474,0.057
		l1.526-2.54l0.562-0.411l1.227-0.724l1.484-1.132l12.473-3.527l0.35,14.835l0.484,2.81l0.804,2.735l1.154,2.547l0.273,1.637
		l-0.583,10.174l-1.84,12.04l-1.067,3.514l-1.582,2.466l-1.088,2.684l0.541,3.158l-0.856,2.816l0.665,2.294l1.912,2.014l2.587,2.082
		l2.33,2.32l1.428,2.504l1.752,2.281l3.036,1.865l3.206,1.52l2,2.437l1.438,2.917l1.809,2.821l2.484,2.2l3.345,1.309
		L491.779,280.707z"/>
	<path class="st0" d="M501.706,273.978l-7.262,5.853l-2.665,0.876l-3.464-1.013l-3.345-1.309l-2.484-2.2l-1.809-2.821l-1.438-2.917
		l-2-2.437l-3.206-1.52l-3.036-1.865l-1.752-2.281l-1.428-2.504l-2.33-2.32l-2.587-2.082l-1.912-2.014l-0.665-2.294l0.856-2.816
		l-0.541-3.158l1.088-2.684l1.582-2.466l1.067-3.514l1.84-12.04l0.583-10.174l-0.273-1.637l-1.154-2.547l-0.804-2.735l-0.484-2.81
		l-0.35-14.835l-12.473,3.527l-1.484,1.132l-1.227,0.724l-0.562,0.411l-1.526,2.54l-2.474-0.057l-1.221,0.837l-1.206,0.6
		l-0.84-0.473l-0.866-0.359l-0.804,0.569l-0.531,0.853l-2.149,2.057l-3.922,2.696l-1.098-0.424l-0.448,0.264l-0.232,0.876
		l0.093,0.845l0.278,0.799l0.881,1.768l-0.474,1.908l-2.531,4.008l-3.427,6.975l-1.098,1.779l-2.603,0.44l-4.567-0.422l-0.608-0.295
		l-0.67-0.078l-2.974-1.143l-1.881-3.517l-2.922-0.515l-2.005-1.378l0.021-2.105l-0.474-1.981l-3.324-1.619l-1.83-4.046
		l-2.484-2.859l-3.397-2.016l-2.252-2.505l1.855-5.055l2.66-4.825l2.855-3.801l-0.129-1.488l-4.263-4.637l-1.835-3.777l1.721-0.93
		l1.892-0.788l1.727-0.925l2.927-0.899l0.696-0.744l0.16-0.734l0.464-0.612l4.747-2.916l1.531,0.021l1.402-0.46l1.737-1.198
		l1.984-0.726l3.309-3.344l2.108-0.018l1.933,1.048l2.01,0.395l1.557,0.658l-1.268,1.444l-0.979,1.691l1.51,1.56l2.252,0.307
		l0.871-1.317l-0.155-1.919l5.922-1.583l0.866-1.79l0.294-3.478l1.32,0.181l0.66,2.37l-1.232,3.589l-0.35,3.639l1.087,3.438
		l1.015-0.284l0.15-1.498l1.325-1.681l1.778-1.557l2.417-3.197l2.876-0.971l1.639,2.347l2.376,4.465l11.267,16.366l2.477,1.045
		l2.317-0.297l0.484-1.018l2.242-0.437l2.34-0.201l1.366-0.437l1.412,0.057l0.819,0.333l0.711-0.367l0.067-2.863l-1.118-6.316
		l-0.433-5.713l0.82-2.025l2.979-3.915l0.902-0.349l0.964-0.199l1.036-0.901l0.984-0.341l0.366-0.826l-0.005-0.519l0.356-0.382
		l3.639-0.186l0.923,0.256l0.897,0.612l0.943,1.673l1.526-0.356l1.227-1.65l1.309-1.446l3.747-0.041l1.139-1.028l0.928-1.306
		l1.582-1.066l1.737-0.656l1.227-0.318l1.263-0.121l1.366,0.139l1.325-1.332l0.995-0.289l0.984-0.093l0.639,0.754l0.613,0.906
		l1.381,0.444l1.459,0.088l0.727,0.63l-0.201,0.95l1.541,3.654l2.68,2.915l1.84,3.138l1.479,2.603l0.881,2.224l-0.175,5.553
		l0.443,2.529l0.603,1.021l1.098,3.792l0.299,1.349l0.052,1.388l-0.747,1.824l-0.036,1.558l0.108,1.607l-0.278,3.866l0.098,3.833
		l1.654,2.835l2.567,2.109l1.154,0.158l4.345,2.425l3.458,2.647l1.201,0.439l1.139-0.184l1.835-1.153l1.118-0.15l3.005,0.103
		l0.691,0.277l0.5,0.331l0.99,0.194l0.521,0.217l1.088,0.954l1.32,1.559l-2.49,2.635l-0.392,3.307l-0.031,2.415l0.691,2.139
		l0.984,1.311l0.35,1.635l0.577,1.407l0.835,1.288l0.433,1.894l-2.402-0.093l-1.381-0.784l-1.314-0.957l-0.876,0.044l-3.412,0.724
		l-2.484,0.833l-3.067,0.722l-2.964-0.704l-2.422-0.812l-2.484-0.005l-2.752,2.481l-7.345,8.898l-0.418,1.165l0.412,1.312
		l-0.051,1.426l-1.103,4.835l-1.118,3.326l-4.582,5.929l-0.948,2.696l-1.072,5.871l-1.577,2.577L501.706,273.978z"/>
	<path class="st0" d="M415.941,223.216l0.201,1.764l-0.825,1.666l-0.448,1.299l-12.164,8.351l-0.263,1.672l1.021,1.677l0.155,1.861
		l-0.046,1.868l0.639,2.032l0.902,1.962l0.794,3.401l1.149,1.667l1.361,1.455l0.613,1.579l0.887,1.46l0.742,0.474l0.531,0.645
		l0.356,0.311l0.474,0.111l0.217,0.811l0.113,0.968l1.263,2.079l1.655,1.797l0.557,1.45l-1.026,1.264l-1.551,1.355l-0.247,2.023
		l-0.484,1.917l-1.283,1.883l-1.773,4.171l-0.186,5.818l-1.082,4.512l0.412,4.358l1.01,1.773l0.469,1.978l-0.021,1.807l-0.83,1.6
		l-0.515,4.51l0.881,8.597l-1.381,3.35l-6.283,0.291l0.809,4.677l0.232,5.339l-2-0.615l-2.072-0.241l-2.067-0.522l-1.912-0.169
		l-0.753,0.732l-0.912,0.579l-0.995,0.387l-0.856,0.654l-2.124,1.207l-1.84,1.485l-0.572,4.864l-1.861,3.529l-14.674,3.068
		l-2.515,3.032l0.082,1.567l-0.979,0.816l-2.33,0.343l-2.324-0.104l-2.237-0.821l-2.288-0.021l-1.711,1.894l-1.536,2.159
		l-4.118,2.809l-4.376,2.451l-2.263-1.016l-2.077-1.484l-0.984-0.255l-0.814-0.478l-0.196-2.066l-0.887-2.1l-0.16-1.364
		l-0.634-1.159l-2.866-0.875l-0.974-1.005l-0.789-1.161l-1.18-2.218l-1.732-1.681l-2.124-0.8l-1.206-2.008l-0.381-2.742
		l-0.701-2.609l-1.139-1.649l-1.515-1.288l2.165-4.434l-0.289-5.318l0.33-5.33l-0.526-1.103l2.381-2.838l0.768-0.444l3.608-1.37
		l5.077-5.172l1.984-1.434l1.072-0.451l1.227-0.171l0.546-0.428l1.752-2.829l2.917-2.453l3.438-2.566l-0.196-1.62l-0.562-1.721
		l0.139-4.186l2.613-9.745l0.041-4.383l0.129-0.982l0.289-0.899l1.335-1.054l1.031-2.098l-0.155-2.253l-1.5-1.116l-1.093-1.302
		l2.206-3.371l3.242-2.752l1.855-1.898l1.397-2.175l-1.088-1.367l-4.422-4.467l-1.711-1.102l-1.603-1.304l-2.247-1.338l-2.536-0.942
		l-1.448-1.472l-0.495-2.117l-0.299-2.101l1.412-3.927l-0.428-1.958l-0.835-2.395l-0.031-2.514l1.789-4.828l-0.108-4.295
		l-0.552-4.23l1.077-4.563l5.922-7.672l2.154-4.639l2.567-4.424l1.16-0.984l1.593,0.543l1.572-0.155l0.366-1.584l0.484-0.801
		l0.397-0.902l0.175-2.188l1.902-1.638l3.026-0.785l1.263-1.356l1.49-1.108l1.783-0.54l1.819-0.375l8.479-3.438l0.634-1.064
		l1.335-1.092l1.794-0.333l3.144,2.87l3.422,2.511l1.835,3.777l4.263,4.637l0.129,1.488l-2.855,3.801l-2.66,4.825l-1.855,5.055
		l2.252,2.505l3.397,2.016l2.484,2.859l1.83,4.046l3.324,1.619l0.474,1.981l-0.021,2.105l2.005,1.378l2.922,0.515l1.881,3.517
		L415.941,223.216z"/>
	<path class="st0" d="M363.471,182.3l-0.175,2.188l-0.397,0.902l-0.484,0.801l-0.366,1.584l-1.572,0.155l-1.593-0.543l-1.16,0.984
		l-2.567,4.424l-2.154,4.639l-5.922,7.672l-1.077,4.563l0.552,4.23l0.108,4.295l-1.789,4.828l0.031,2.514l0.835,2.395l0.428,1.958
		l-1.412,3.927l0.299,2.101l0.495,2.117l1.448,1.472l2.536,0.942l2.247,1.338l1.603,1.304l1.711,1.102l4.422,4.467l1.088,1.367
		l-1.397,2.175l-1.855,1.898l-3.242,2.752l-2.206,3.371l1.093,1.302l1.5,1.116l0.155,2.253l-1.031,2.098l-1.335,1.054l-0.289,0.899
		l-0.129,0.982l-0.041,4.383l-2.613,9.745l-0.139,4.186l0.562,1.721l0.196,1.62l-3.438,2.566l-2.917,2.453l-1.752,2.829
		l-0.546,0.428l-1.227,0.171l-1.072,0.451l-1.984,1.434l-5.077,5.172l-3.608,1.37l-0.768,0.444l-2.381,2.838l0.526,1.103l-0.33,5.33
		l0.289,5.318l-2.165,4.434l-10.834,0.641l-4.015-0.922l-3.458-2.326l-4.072-1.207l-4.283,1.007l-1.577,0.563l-1.191,1.096
		l-1.68,1.07l-2.185-0.223l-1.242,0.504l-0.582,1.264l-3.206,5.159l-1.289,0.958l-3.391,0.579l-3.479-0.083l1.18-5.038l0.521-5.138
		l-0.314-5.233l0.242-5.221l1.448-4.631l2.933-3.725l1.402-0.83l1-1.299l0.484-0.897l0.294-0.954l-0.371-0.713l-0.448-0.677
		l-0.237-1.045l-0.861-0.487l-7.247-0.628l-2.046-0.783l-1.531-1.584l-1.82-2.891l-0.732-0.736l-0.484-0.215l-1.113-0.171
		l-0.938-0.695l-1.752-0.772l-0.521-0.353l-0.284-0.264l-0.526-0.783l-0.046-0.225l0.093-0.576l-0.046-0.228l-0.294-0.249
		l-0.634-0.101l-0.299-0.163l-0.68-0.498l-2.582-1.384l-1.191-0.943l-1.273-1.415l-1.16-1.708l-0.835-1.817l-0.881-3.371
		l-0.634-0.909l-0.325-0.832l0.036-2.466l-0.206-0.982l-0.356-0.422l-0.954-0.852l-0.397-0.466l-0.186-0.471l-0.155-0.565
		l-0.196-0.477l-0.299-0.199l-1.057-0.132l-2.871-0.894v-0.342l-0.778,0.412l-0.871-0.047l-2.309-0.451l-1.18-0.598l-0.18,0.047
		l-0.18,0.163l-0.216,0.096l-0.289-0.15l-0.469-0.523l-0.263-0.225l-0.294-0.093l-1.474,0.316l-1.103,0.751l-0.974,0.901
		l-1.057,0.769l-1.01,0.432l-0.387,0.254l-0.541,0.523l-0.283,0.347l-0.01,0.155l-0.644,0.142l-1.876,0.743l-0.557,0.326
		l-0.515,0.078l-3.726-1.14l-0.546,0.129l-0.521,0.777l-0.747-0.552l-0.861,0.062l-0.948,0.308l-1.005,0.181l-1.113-0.163
		l-0.974-0.422L218,269.945l-0.923,0.357l-2.062-0.233l-0.943,0.389l-0.886,0.189l-0.727-0.754l-0.959-1.691l-0.979-0.35
		l-1.015,0.171l-1.005,0.357l-0.948,0.194l-0.665-0.148l-0.108-0.347l0.263-0.717l-0.052-0.3l-0.232-0.474l-0.057-0.254l0.34-1.15
		l-0.211-0.831l-0.186-0.477l-0.253-0.435l0.129-0.373l0.026-0.319l-0.155-0.334l-0.237-0.083l-0.696,0.031l-0.289-0.119
		l-3.309-2.52l-0.227-0.07l-0.175-0.155l-0.345-0.808l-0.144-0.596l0.031-0.583l1.428-0.797l0.134-1.245l3.86-1.033l3.593-0.813
		l0.928-1.74l-1.861-7.949l0.438-5.779l2.422-6.75l-0.216-1.34l-0.593-0.781l-0.325-0.83l0.314-0.171l2.479-1.891l1.144-0.385
		l0.351-0.22l0.222-0.339l0.196-0.786l0.191-0.336l0.892-0.553l2.294-1.076l0.402-0.605l-0.541-5.242l0.253-0.887l0.938-0.646
		l2.783-1.042l0.443-0.494l0.773-2.273l-0.892-3.798l-0.459-3.743l-0.603-1.228l-1.381,0.14l-0.351-2.267l-0.021-2.321l1.139-1.75
		l0.515-2.106l1.283-1.607l2.031-0.556l4.814,0.522l3.443-1.706l-0.278-1.4l-0.598-1.318l-0.959-0.589l-0.397-0.915l0.701-1.517
		l1.969-2.979l5.829,1.79l4.433,0.915l1.675,1.209l1.459,1.39l0.356,2.574l-0.129,2.716l0.201,2.579l0.711,2.468l-0.139,2.068
		l-0.376,1.905l3.716-1.734l4.092-3.122l4.144-0.804l4.072,1.277l1.892,1.166l2,0.954l1.794-0.377l1.278-1.613l0.773-0.602
		l0.175-1.078l-0.335-1.889l0.335-1.967l0.794-1.287l1.314-0.209l1.752-1.072l1.655,0.765l0.938,0.995l0.536,1.413l-0.057,0.938
		l0.082,0.84l1.196-0.044l4.84-1.424l0.917-2.656l-2.232-0.765l-1.005-0.884l-0.861-1.018l0.361-0.879l0.856-0.757l0.562-0.907
		l1.196-0.186l0.732-2.741l-0.546-2.857l2.737-0.909l3.206-1.385l0.711-0.723l0.861-0.437l3.556,0.772l2.397-1.036l2.026,0.677
		l2.258,1.896l2.984,0.251l2.654-0.127l4.427-2.092l5.767-1.392l2.783,0.726l3.391-0.005l1.376-0.493l2.876-0.726l2.788,0.635
		l0.227,1.279l0.99,0.77l1.649-0.264l1.711-0.046l3.737,1.279l2.995,0.093l1.582,0.214l1.319,0.821l1.021,1.374l1.355,0.969
		l1.634,0.442l1.593,0.033l1.134-0.333l0.969,0.39l0.768,0.723l1.005,0.289l1.789,0.127l1.706,0.705l1.371-0.034l0.655-1.204
		l1.144-0.625L363.471,182.3z"/>
	<path class="st0" d="M472.636,349.412l1.113,5.081l0.856,1.476l1.469,0.663l0.675-0.039l1.108-0.2l0.655,0.075l2.273,0.538
		l1.051,0.434l0.866,0.712l0.464,0.59l0.201,0.125l1.165,0.257l0.995,0.406l1.289,0.148l0.742,0.169l0.356,0.164l0.289,0.231
		l0.129,0.182l0.046,0.179l-0.196,1.573l0.108,0.536l0.371,0.458l0.917,0.408l0.773-0.127l0.691-0.351l0.68-0.242l0.412-0.016
		l2.5,0.242l0.742,0.32l0.165,0.026l0.515-0.003l1.041,0.242l-2.448,3.235l-3.582,3.303l-2.247,4.214l-1.819,4.47l-3.778,1.096
		l-4.402-1.306l-4.69-0.466l-4.386,1.621l-3.634,2.795l-1.567,1.504l-0.077,0.536l-0.026,0.648l0.067,0.867l0.268,0.828l0.32,1.692
		l-0.861,1.471l-2.892,0.443l-1.608,0.404l-1.85-0.391l-4.366,2.674l-3.861,3.599l-3.433,4.301l-1.871,5.229l-3.541,3.192
		l-4.618,2.145l-1.479,1.421l-1.855,6.424l0.077,2.402l-0.603,2.282l-1.072-0.915l-0.237-4.274l-0.804-1.178l-5.711-0.967
		l-4.556-1.314l-4,0.125l-0.253,2.227l0.825,2.039l0.057,2.243l-1.268,1.86l0.072,0.798l0.902,0.428l0.454,1.015l-0.185,3.592
		l0.603,1.978l-3.643,1.213l-4.728-0.282l-4.728-3.379l0.556-9.008l-11.96-4.221v-2.532l-7.061-2.153l0.582-3.292l-0.809-1.725
		l-1.067-1.566l-0.794-2.048l1.041-2.095l1.417-2.18l1.83-1.711l2.103-0.711l1.763-1.357l1.304-2.187l1.799-4.174l1.211-1.494
		l2.742-0.82l2.18-1.702l1.206-1.642l-1.371-1.398l-2.263-0.812l-2.402,0.2l-1.325-0.232l0.18-1.296l-0.495-1.525l-13.504-2.162
		l-2.129-0.7l-1.84-1.293l-7.381-1.753l-2.562-0.208l-23.204,1.173l-1.912-0.255l-0.722-1.467l0.433-2.052l0.912-1.857l1.356-1.802
		l1.139-1.95l1.366-3.229l0.995-1.204l0.711-1.396l-0.804-0.931l-1.283-0.86l4.376-2.451l4.118-2.809l1.536-2.159l1.711-1.894
		l2.288,0.021l2.237,0.821l2.324,0.104l2.33-0.343l0.979-0.816l-0.082-1.567l2.515-3.032l14.674-3.068l1.861-3.529l0.572-4.864
		l1.84-1.485l2.124-1.207l0.856-0.654l0.995-0.387l0.912-0.579l0.753-0.732l1.912,0.169l2.067,0.522l2.072,0.241l2,0.615l4.84,2.936
		l5.025-0.784l1.021-1.08l1.422-0.363l1.691-0.003l1.67-0.275l2.392,0.21l2.34,0.802l1.118,0.607l0.624,1.01l-0.01,0.794
		l0.716,0.421l2.402,0.267l2.397,0.878l3.562,1.968l1.763,0.143l1.603-0.117l4.386,1.083l0.505,0.122l0.892,0.579l0.742,0.33
		l0.866,0.153l1.974,0.686l1.041,0.192l2.886-0.696l0.722,0.195l0.397,0.2l0.567,0.047l1.093-0.06l0.67,0.068l4.51,1.802
		l0.964,0.158l1.165,0.379l0.587,0.919l0.345,1.135l0.459,1.029l0.253,0.226l0.763,0.47l0.376,0.366l0.572,1.167l0.278,0.377
		l0.191,0.395l0.139,0.99l0.18,0.379l0.624,0.325l0.665-0.083l1.34-0.434l2.309-0.031l1.196,0.242l0.85,0.556l0.314,0.72
		L472.636,349.412z"/>
	<path class="st0" d="M315.105,74.107l0.004,0.006l-0.289,0.497L315.105,74.107z M314.686,75.488l0.017,0.397l-0.185,0.088
		l-0.062,0.038l0.062-0.039l0.176-0.088L314.686,75.488z M314.581,77.618l0.29,0.204l-0.001,0.001L314.581,77.618z M322.03,74.652
		l0.192,0.026l-0.001,0.001L322.03,74.652z M322.228,78.085l0.551,0.052l-0.554-0.05L322.228,78.085z M326.333,78.766l0.007,0.002
		l-0.073,0.151L326.333,78.766z M326.095,79.041l-0.119,0.063l-0.009-0.004L326.095,79.041z M327.553,79.69l0.241,0.264
		l-0.091,0.296l0.085-0.298L327.553,79.69z M327.351,80.926l-0.366,0.415l-0.151,0.312l0.146-0.32L327.351,80.926z M326.515,81.98
		l-0.247-0.1l-2.314-0.015l-3.242-2.205l-1.572-0.449l-1.376,1.289l-0.003-0.004l1.38-1.293l1.571,0.455l3.244,2.203l2.305,0.015
		L326.515,81.98z M319.151,82.539l0.004,0.006l-0.435,0.111L319.151,82.539z M318.431,82.747l-0.147,0.151l-0.149,0.359
		l-0.005-0.004l0.145-0.363L318.431,82.747z M317.533,82.733l-1.357-1.181l-0.806-0.131l0.806,0.117L317.533,82.733z
		 M315.383,82.875l0,0.01h-0.34l-0.296-0.609l0.299,0.599H315.383z M314.578,81.994l-0.577-0.829l-0.758-0.542l-0.582,0.552
		l-0.009-0.004l0.587-0.558l0.763,0.544L314.578,81.994z M313.46,83.404l-0.005,0.008l-0.242-0.196l-1.235-0.329v-0.011l1.233,0.338
		L313.46,83.404z M311.978,82.898l0.008,0.05l-0.008,0V82.898z M311.776,82.938l-1.191-0.053l-0.247-0.062l-0.07-0.09l0.067,0.083
		l0.25,0.059L311.776,82.938z M310.222,82.677l-0.102,0.054l-0.14,0.339l0.133-0.342l0.103-0.059L310.222,82.677z M309.908,83.257
		l0.001,0L309.908,83.257L309.908,83.257z M310.083,83.498l0.052,0.184l0.066,0.379l-0.074-0.379L310.083,83.498z M310.244,84.584
		l0,0.006l-0.18,0.526l-0.442,0.67l0.433-0.678L310.244,84.584z M309.595,85.973l-0.031,0.35l0.091,0.35l-0.099-0.345
		L309.595,85.973z M313.909,86.371l0.793,0.293l0.768,0.426l-0.777-0.424L313.909,86.371z M324.896,102.988l3.817,4.418l2.189,2.165
		l1.814,1.615l2.268,1.037l2.278,1.401l1.201,2.283l-0.17,1.419l-0.964,0.973l-1-0.057l-0.876,0.372l-1.902,1.484l-3.438-0.996
		l-1.366,0.877l-1.191,0.343l-0.84,0.756l-0.758,0.921l-1.185,0.291l-0.711,1.272l1.541,5.594l-0.423,2.018l-1.433,4.328
		l-0.335,2.374l-0.655,1.549l-1.247,1.169l-1.221,3.601l-2.721,1.647l-1.964,0.57l-2.139,0.294l-1.866-0.452l-1.732,0.617
		l-1.897,3.707l-3.288,1.541l-1.175-0.687l-0.979-0.963l-0.933-0.423l-1.021-0.129l-1.541-0.787l-1.629-0.493l-1.34-1.051
		l-0.794-1.833l-1.407-1.345l-1.541-1.159l-1.443,0.297l-1.639,0.524l-1.294-0.367l-1.005,0.596l-0.752,1.572l-1.469,0.697
		l-1.438-0.09l-0.356,1.373l-0.696,1.885l0.232,1.572l1.165,0.189l-0.057,1.386l-1.861-0.067l-3.995-2.432l-1.768-1.337
		l-0.021-2.553l0.366-2.783l-0.417-1.851l-1.093-1.471l4.306-11.861l-4.35-3.653l1.263-3.794l-8.701-5.058l2.666-5.057l-8.42-1.405
		l-1.544-2.107l-2.576-0.867l0.558-0.441l-0.338-0.779l-0.47-0.397l-0.558-0.309l-0.807-0.617l-0.749-0.294l-0.352-0.206
		l-0.176-0.279l-0.103-0.617l-0.22-0.309l-0.455-0.191l-0.573-0.118l-0.47-0.25l-0.206-0.588l0.029-0.705l0.103-0.646l0.205-0.529
		l0.352-0.382l0.22,0.103l1.85,0.073l0.191,0.544l0.499,0.338l0.661,0.118l0.661-0.132l0.896-0.896l1.277-2.439l0.925-0.029
		l0.176-1.587l-0.059-0.823l-0.308-0.353l-0.191-0.162l0.015-0.309l0.235-0.264l0.44,0.059l0.161,0.22l0.308,0.852l0.235,0.279
		l0.837,0.235l0.587-0.162l0.514-0.294l0.617-0.147l0.631-0.029l0.206,0.029l0.939,2.189l0.47,0.382l0.837,0.162l0.308,0.118
		l-0.22,0.235l-0.617,0.382l0.044-0.176l-0.308-0.147l-0.44-0.088l-0.308,0.044l-0.191,0.999l0.896,1.249l1.145,1.234l-0.147,0.632
		l0.661,0.793l1.189,0.22l2.29-0.044l-0.088,0.235l-0.161,0.573l-0.117,0.235l0.558-0.029l0.528,0.015l0.514,0.118l0.47,0.206
		l0.396-0.367l0.44,0.015l0.426,0.309l0.44,0.426l0.411-0.529l1.013-0.661l0.279-0.544h0.352l0.147,0.735l-0.029,0.808l-0.22,0.779
		l-0.411,0.632l-0.866,0.735l-0.338,0.426l-0.705,1.396l1.13,0.338l1.233-0.72l3.758-3.556l0.279-0.691l0.103-1.043l0.132-0.514
		l0.338-0.838l0.44-0.823l0.44-0.426l0.308,1.058l0.029,0.823l0.161,0.793l0.719,0.984l0.543,0.985l-0.235,0.808l-0.514,0.735
		l-0.323,0.691l0.69-0.353l2.055-1.323l0.308,0.338l-0.117,0.367l0.132,1.029l-0.015,0.661l0.602-0.485l0.778-1.161l0.705-0.411
		l0.573,0.191l0.866-0.5l0.44,0.147l0.338,0.456l0.176,0.353l0.206,0.25l0.455,0.132v0.309l-0.338,0.603l-0.514,0.455l-0.411,0.529
		l-0.088,0.823l0.543-0.132l0.382,0.176l0.25,0.411l0.176,0.573l-1.072,0.132l-0.015,0.705l0.279,0.97l-0.206,0.955l-0.279-0.162
		l-0.749-0.206l0.264,0.882l0.191,0.411l0.235,0.397l0.352-0.22l0.396,0.059l0.954,0.544l-0.881,0.794l-0.205,0.647l0.558,0.441
		l1.395,0.162l0.543,0.573l-0.352,1.279l-1.057,1.925l-0.015,0.632l0.176,0.544l-0.029,0.382l-2.07,0.441l-0.631,0.044l-0.573,0.132
		l-1.63,0.897l-1.174,0.397l-0.25,0.353l0.396,0.647l0.852-0.265l0.969,0.441l1.585,1.191v0.338l-1.351,0.073l-0.367,0.5
		l0.015,0.676l-0.176,0.603l-0.514,0.764l-0.161,0.794l0.117,0.75l0.382,0.603h0.367l0.396-0.632l1.644-1.441l0.279-0.485
		l0.778-1.896l-0.147-0.647l0.161-1.073l0.352-1.102l0.44-0.75l0.969-0.617l0.851-0.353l0.661-0.5l0.411-1.102h0.382l0.059,1.235
		l0.484,0.794l0.807,0.559l2.877,1.323l0.984,0.279l0.602-0.059l0.235-0.323l0.059-0.367l-0.073-0.382l-0.22-0.323l-0.661-0.456
		l-0.484,0.029l-0.426,0.176l-0.47-0.059l-0.69-0.367l-0.029-0.191l0.073-0.661l-0.044-0.176l-0.426-0.088l-1.644,0.088l0.426-0.911
		l0.617-0.426l0.338-0.367l-0.352-0.691l-0.264-0.147l-0.822-0.353l-0.279-0.176l-0.191-0.279l-0.279-0.735l-0.206-0.382
		l-0.323-0.338l-0.852-0.779l-0.191-0.206l0.073-0.676l0.367-0.191l0.367,0.059l0.176,0.088l0.352-0.426l0.161-0.118l-0.088-0.191
		l-0.426-0.632l-0.206-0.191l-0.94-0.661l-0.323-0.559l-0.235-0.852l0.029-0.794l0.529-0.353l0.044-0.382l1.174-1.631l0.308-0.22
		l-0.264-0.852l-1.174-1.249l-0.264-0.632l0.103-0.882l0.338-0.5l0.543-0.103l0.719,0.264l-0.191-1.602l1.174-1.455l1.806-1.043
		l1.82-0.397l4.052,0.426l1.938,0.558l-0.015,0.808l0.396,0.632l0.573,1.175l0.426,0.514l0.206,0.029l0.94,0.279l0.029,0.073
		l0.176,0.162l-0.044,0.72l0.206,0.162l0.411,0.191l1.101,0.882l0.69,0.264l0.616-0.015l2.613-0.338l1.218-0.294l0.25,0.162
		l0.367,0.294l0.338,0.118l0.22-0.72l0.206-0.235l0.308-0.103l0.367,0.147l0.073,0.294l-0.117,0.47l-0.176,0.426l-0.132,0.132
		l0.617,0.323l0.793,0.059l0.69-0.088l0.294-0.103l0.073,0.764l0.279,0.397l0.529,0.118l0.851-0.073l-0.235-0.367l-0.103-0.323
		l0.059-0.338l0.279-0.367l0.617,0.309l0.543-0.206l0.396-0.544l0.147-0.72l-0.264-0.397l-1.776-0.823l-0.661-0.47v-0.029h0.47
		l1.277-0.749l1.145-0.397l0.514-0.426l0.881,0.632L324.896,102.988z M275.821,96.89l-0.558,0.838l-0.396,0.779l0.206,0.793
		l0.103-0.147l0.029-0.059l0.029-0.059l0.191-0.103l-0.191,0.779l-0.631,0.676l-0.734,0.382l-0.514-0.103l-0.47,0.485l-0.484,0.323
		l-0.528,0.103l-0.543-0.206l-0.338-0.838l-0.117-1.014l-0.279-0.852l-0.822-0.367l-0.117-0.632l1.307-3.82l0.22,0.573l0.411,0.338
		l0.426-0.029l0.338-0.573h0.308l-0.147,2.116l0.484,0.514l1.365-0.176l-0.161-0.426l-0.147-1.322h0.308l0.543,0.103l0.543-0.279
		l0.44,0.073l0.206,1.161L275.821,96.89z M308.513,87.179l-0.059,0.279l-0.235,0.558L308,87.929l-0.44,0.029l-0.206,0.323
		l0.499,0.764l-1.585-0.132l-1.057-0.72l-0.91-0.896l-1.174-0.632l-0.206,0.558l-0.396,0.323l-0.543,0.059l-0.631-0.264
		l-2.349-1.807l-0.866-0.264l-2.496-0.073l-1.204-0.338l-1.086-0.778l-0.558-0.176l-0.47,0.206l-0.44,0.074l-0.426-0.617
		l0.015-0.441l0.264-0.455l1.85-1.924l0.484-0.676l0.103-0.602l-0.367-0.147l-1.395-0.132l-0.235-0.088h-0.382l-0.25-0.529
		l-0.763-0.808l-0.308-0.705l0.484,0.029l0.338,0.059l0.25,0.191l0.25,0.426l0.822-0.411l0.587-0.397l0.969-0.881l0.396-0.485
		l0.22-0.162l0.44-0.073l0.22,0.073l0.91,0.397l0.235,0.25l-0.147,0.808l-0.44,0.558l-0.22,0.558l0.47,0.764l2.569,1.395l1.321-0.47
		l0.22-0.059l0.191-0.367h0.426l0.396,0.118l0.161,0.088l2.51-0.602l0.396,0.073l0.235,0.72l0.382,0.734l0.132,0.764l-0.984,1.601
		l0.44,0.397l1.879,0.411v0.367l-0.617,0.353l0.455,0.69l1.483,1.352l0.25,0.118l0.22-0.059l0.161,0.029l0.059,0.397L308.513,87.179
		z M299.485,70.875l0.499-0.235l1.747-0.044l1.072-0.191l0.558-0.015l0.411,0.206l0.264,0.411l0.029,0.323l-0.206,0.118
		l-0.426-0.176h-0.308l0.132,0.396l0.426,0.573l0.088,0.206l-0.044,0.617l-0.132,0.235l-0.22,0.118l-0.661,0.676l-1.659,1.263
		l-0.161-0.191l-0.176-0.059l-0.161-0.029l-0.191-0.059l-0.925-0.925l-0.396-0.543l0.117-0.235l0.22-0.25l-0.059-0.543l-0.191-0.588
		l-0.161-0.353h0.69L299.485,70.875z M252.818,95.215l-0.983,2.41l-0.631,0.485l-0.837,0.338l-0.851,0.176h-0.749l0.059,0.059
		l-0.161,0.103l-0.25,0.103l-0.191,0.044l-0.176-0.088l0.015-0.191l0.044-0.206l-0.044-0.147l-0.161-0.235l-0.073-0.323
		l-0.191-0.132l-0.572,0.323l0.308-0.632l0.705-0.617l0.514-0.676l-0.191-0.793l-0.455-0.162l-1.057,0.132l-0.191-0.323l0.191-0.441
		l0.455-0.279l0.719-0.294l0.925-0.529l0.822-0.602l0.807-0.47l0.91-0.103l0.029,0.558l0.073,0.22l0.206,0.25l0.338-0.353
		l-0.249,0.382l-0.176,0.411l-0.147,0.441l-0.073,0.47h0.308l0.484-0.691l0.382,0.088l0.191,0.544L252.818,95.215z"/>
	<path class="st0" d="M339.886,86.744l0.004,0.004l0.778,1.96l-0.021,0.472l1.969,1.096l1.309-0.611l3.376,0.196l1.979-0.183
		l0.34-1.741l1.222-0.738l3.19,2.955l1.742,0.214l1.752,0.005l3.897,2.092l1.371,0.273l1.149,0.676l1.16,1.676l1.644,1.21
		l3.685,2.148l1.371,1.599l1.129,1.749l1.428,0.725l1.613-0.201l1.263,0.07l2.799,1.914l1.835,0.81l27.42-0.214l0.428,4.824
		l-3.294,14.224l-1.366,2.547l-2.721,1.223l-0.773,0.645l-0.851,0.526l-1.902-0.606l-1.185-1.835l-1.881-1.515l-1.737-0.258
		l-0.433,35.652l-1.355,1.289l-1.175-0.32l-0.979,0.416l-0.082,0.759l-0.304,0.71l-1.711,1.56l-1.335,1.895l-0.191,2.002
		l0.551,1.932l-1.794,0.333l-1.335,1.092l-0.634,1.064l-8.479,3.438l-1.819,0.375l-1.783,0.54l-1.49,1.108l-2.393-1.727
		l-2.114-1.986l-2.774-3.575l-2.114-4.899l-1.717-5.692l-1.585-2.647l-4.095-1.191l-4.624-0.132l-3.699-0.397l-2.378-1.456
		l-1.453-2.779l-1.453-0.662l-1.717,0.926l-1.85,0.397l-2.51-0.662l-4.36-2.117l-3.567-3.308l-2.378-2.117l-2.59-0.299l1.221-3.601
		l1.247-1.169l0.655-1.549l0.335-2.374l1.433-4.328l0.423-2.018l-1.541-5.594l0.711-1.272l1.185-0.291l0.758-0.921l0.84-0.756
		l1.191-0.343l1.366-0.877l3.438,0.996l1.902-1.484l0.876-0.372l1,0.057l0.964-0.973l0.17-1.419l-1.201-2.283l-2.278-1.401
		l-2.268-1.037l-1.814-1.615l-2.189-2.165l-3.817-4.418l0.734-0.426l-0.147-0.705l-0.323-0.25l-0.279-0.132l-0.176-0.206
		l-0.073-0.441l0.191-0.397l0.426-0.514l0.499-0.426l0.411-0.191l0.837-0.132l1.996-0.779l0.749-0.456l1.072-1.425l0.734-0.529
		l0.954,0.25l1.703-1.322l0.675-0.382l2.217-0.47l0.514-0.455l0.514-0.088l2.892-1.91l-0.103-0.5l-0.235-0.294l-0.235-0.206
		l-0.117-0.162l0.044-0.47l0.279-0.793l0.015-0.47L339.886,86.744z M318.802,88.501l0.353-0.133l0.537-0.05l-0.536,0.051
		L318.802,88.501z M324.275,88.226l0.329,0.011l0.388,0.069l-0.389-0.069L324.275,88.226z M333.831,86.454l0.88-0.642l0.412-0.205
		l-0.406,0.206L333.831,86.454z"/>
	<path class="st0" d="M220.237,198.292l-1.649-2.621l-1.067-2.595l-0.16-0.879l-0.593-0.747l-0.206-1.584l-0.407-1.535l0.139-2.467
		l1.654-4.617l0.273-2.428l-0.876-4.089l-3.01-6.628l-2.799-2.67l-1.211-3.13l-0.113-3.432l-0.459-1.725l-0.211-1.585l0.16-1.854
		l-0.856-1.694l-0.067-0.133l-0.005,0.017l-1.067-1.603l-0.917-1.719l-1.268-3.475l-0.562-3.596l-2.623-1.941l-0.943,0.601
		l-0.716,0.847l-0.608-0.01l-0.438-0.516l0.098-2.764l1.887-2.919l1.392-3.582l-0.108-3.775l-0.232-0.382l-0.402-0.17l-0.376-0.604
		l-0.057-0.782l-1.165-2.214l-2.098-0.836l-0.61-3.149l-2.456-2.107l-2.28-2.459l1.754-4.917l5.438-2.634l7.367-12.641l1.579,0.351
		l3.333-0.527l2.631-0.878l2.28,0.351l9.999,4.389l3.458,0.138l0.396,0.279l0.881-0.029l1.277-0.602l0.954-0.867l1.057-0.573
		l1.497,0.308l-0.206,0.529l-0.132,0.206l0.749,0.338l0.44,0.47l-0.059,0.309l-0.793-0.118l0.044,0.984l0.161,0.602l0.822,1.161
		l0.69,0.206l0.323,0.22l-0.338,0.793l0.103,0.367l0.191,0.367l0.059,0.367l-0.264,0.646l-0.411,0.603l-0.587,0.5l-0.793,0.367
		l-0.763,0.059l-0.661-0.074l-0.44,0.132l-0.176,0.705l0.264,0.867l0.587,0.265l0.587,0.132l0.264,0.485v2.733l0.308,0.426
		l0.719-0.103l1.527-0.485l1.497-0.015l0.822-0.118l0.602-0.235l-0.132,0.823l-0.44,0.088l-0.573-0.206h-0.558l-0.25,0.147
		l-0.103,0.103l-0.015,0.206v0.382l-0.044,0.411l-0.132,0.059l-0.205-0.059l-0.558,0.191l-0.646-0.044l-0.279,0.132l-0.294,0.426
		v0.294l0.103,0.235l0.015,0.206l-0.617,1.19l-0.132,0.926l-0.059,0.235l0.132,0.074l0.925-0.015l0.279,0.074l0.147,0.353
		l0.044,0.794l-0.396,2.454l0.029,1.205l0.675,0.955l0.675-0.367l0.763-0.617l0.646-0.72l0.323-0.676l-0.132-0.647l-0.661-1.764
		l-0.073-0.353l0.161-0.147l-0.073-0.353l-0.25-0.676l0.117-0.514l0.279-0.294l0.367-0.22l0.426-0.353l0.499-0.088l0.514,0.47
		l0.308,0.75l-0.117,0.749l0.793-0.25l0.91-0.088l-0.191-0.544l-0.161-1.602l0.015-0.588l-0.073-0.367l-0.176-0.206l-0.059-0.176
		l0.308-0.294l0.25-0.015l0.103,0.323l-0.015,0.735l1.277-0.367l0.338,0.661l-0.073,0.94v0.47l1.13,0.279l0.279,0.705l-0.015,0.999
		l0.161,1.117l0.617,0.676l0.91,0.132l0.822-0.411l0.367-0.926l-0.191-0.47l-0.91-0.75l-0.294-0.323l-0.029-0.397l0.073-0.955
		l-0.044-0.353l-0.22-0.25l-0.338-0.22l-0.323-0.382l-0.264-1.102l-0.323-0.514l-0.382-0.426l-0.352-0.176l-0.411-0.103l-0.338-0.25
		l-0.176-0.338l0.103-0.338l0.338-0.265l0.367-0.044l0.426,0.015l0.572-0.074l0.279,0.029l0.191,0.162h0.249l0.455-0.353l0.117-0.22
		l0.059-0.279l-0.015-0.25l-0.161-0.118l-0.176-0.25l0.191-1.22l-0.015-0.411l-0.308-1.043l0.411-0.852l0.661-0.191l0.44,0.911
		h0.338l-0.015-0.514l0.059-0.411l0.117-0.397l0.176-0.411l0.294,0.632l1.145,1.293l0.572,0.793l0.147-0.367l0.103-0.103
		l-0.029-0.118l-0.22-0.397l0.396-0.118l0.44,0.015l0.44,0.162l0.44,0.279l-0.132,0.456l0.323,0.485l0.558,0.279l0.631-0.191
		l0.323,0.97l-0.015,0.411l0.925-0.47l0.206-0.749l0.073-0.749l2.576,0.867l1.544,2.107l8.42,1.405l-2.666,5.057l8.701,5.058
		l-1.263,3.794l4.35,3.653l-4.306,11.861l-1.613,0.323l-3.108,1.505l-1.479,1.208l-1.175,1.36l-0.804,1.662l-1.572-0.163
		l-1.289-1.061l-0.433-1.866l-1.505-1.04l-1.902,0.545l-1.551,1.242l-2.155,2.783l-1.052,3.339l0.702,5.096l0.877,4.921
		l-0.702,3.867l-4.561,0.352l-5.087,0.703l-5.262,2.461l-4.385,3.868l-2.807,4.22l-0.702,3.165l0.683,3.494l-1.969,2.979
		l-0.701,1.517l0.397,0.915l0.959,0.589l0.598,1.318l0.278,1.4l-3.443,1.706l-4.814-0.522l-2.031,0.556l-1.283,1.607l-0.515,2.106
		L220.237,198.292z M245.331,101.371l-0.352,0.382l-1.864,1.484l-0.763,0.338l-0.587-0.294l-0.382-0.676l-0.132-0.749l0.132-0.749
		l0.528-1.117l-0.015-0.691l-0.308-0.514l-0.998-0.852l-0.396-0.676l0.675-0.558l-0.396-0.294l-0.969-0.044l-1.013,0.25
		l-0.338-1.748l0.719,0.147l0.543-0.382l0.338-0.676l0.132-0.779l-1.116,0.382l0.132-1.278l0.984-2.556h0.308l0.044,0.999
		l0.529,0.353l0.602,0.279l0.22,0.426l0.573,1.396l0.191,1.572l0.44,1.322l1.351,0.544l0.587,0.044L244.7,96.89l-0.279,0.514
		l-0.103,0.896l0.25,0.735l0.47,0.69l0.352,0.735L245.331,101.371z"/>
	<path class="st0" d="M363.471,182.3l-1.433-0.204l-1.144,0.625l-0.655,1.204l-1.371,0.034l-1.706-0.705l-1.789-0.127l-1.005-0.289
		l-0.768-0.723l-0.969-0.39l-1.134,0.333l-1.593-0.033l-1.634-0.442l-1.355-0.969l-1.021-1.374l-1.319-0.821l-1.582-0.214
		l-2.995-0.093l-3.737-1.279l-1.711,0.046l-1.649,0.264l-0.99-0.77l-0.227-1.279l-2.788-0.635l-2.876,0.726l-1.376,0.493
		l-3.391,0.005l-2.783-0.726l-5.767,1.392l-4.427,2.092l-2.654,0.127l-2.984-0.251l-2.258-1.896l-2.026-0.677l-2.397,1.036
		l-3.556-0.772l-0.861,0.437l-0.711,0.723l-3.206,1.385l-2.737,0.909l0.546,2.857l-0.732,2.741l-1.196,0.186l-0.562,0.907
		l-0.856,0.757l-0.361,0.879l0.861,1.018l1.005,0.884l2.232,0.765l-0.917,2.656l-4.84,1.424l-1.196,0.044l-0.082-0.84l0.057-0.938
		l-0.536-1.413l-0.938-0.995l-1.655-0.765l-1.752,1.072l-1.314,0.209l-0.794,1.287l-0.335,1.967l0.335,1.889l-0.175,1.078
		l-0.773,0.602l-1.278,1.613l-1.794,0.377l-2-0.954l-1.892-1.166l-4.072-1.277l-4.144,0.804l-4.092,3.122l-3.716,1.734l0.376-1.905
		l0.139-2.068l-0.711-2.468l-0.201-2.579l0.129-2.716l-0.356-2.574l-1.459-1.39l-1.675-1.209l-4.433-0.915l-5.829-1.79l-0.683-3.494
		l0.702-3.165l2.807-4.22l4.385-3.868l5.262-2.461l5.087-0.703l4.561-0.352l0.702-3.867l-0.877-4.921l-0.702-5.096l1.052-3.339
		l2.155-2.783l1.551-1.242l1.902-0.545l1.505,1.04l0.433,1.866l1.289,1.061l1.572,0.163l0.804-1.662l1.175-1.36l1.479-1.208
		l3.108-1.505l1.613-0.323l1.093,1.471l0.417,1.851l-0.366,2.783l0.021,2.553l1.768,1.337l3.995,2.432l1.861,0.067l0.057-1.386
		l-1.165-0.189l-0.232-1.572l0.696-1.885l0.356-1.373l1.438,0.09l1.469-0.697l0.752-1.572l1.005-0.596l1.294,0.367l1.639-0.524
		l1.443-0.297l1.541,1.159l1.407,1.345l0.794,1.833l1.34,1.051l1.629,0.493l1.541,0.787l1.021,0.129l0.933,0.423l0.979,0.963
		l1.175,0.687l3.288-1.541l1.897-3.707l1.732-0.617l1.866,0.452l2.139-0.294l1.964-0.57l2.721-1.647l2.59,0.299l2.378,2.117
		l3.567,3.308l4.36,2.117l2.51,0.662l1.85-0.397l1.717-0.926l1.453,0.662l1.453,2.779l2.378,1.456l3.699,0.397l4.624,0.132
		l4.095,1.191l1.585,2.647l1.717,5.692l2.114,4.899l2.774,3.575l2.114,1.986l2.393,1.727l-1.263,1.356l-3.026,0.785L363.471,182.3z"
		/>
</g>
<g id="Copyright">
	<text transform="matrix(1 0 0 1 681.6426 577.5916)" class="st1 st2">© Vemaps.com</text>
</g>
</svg>
